<svg xmlns="http://www.w3.org/2000/svg" width="16.166" height="15.4" viewBox="0 0 16.166 15.4">
  <g id="グループ_7" data-name="グループ 7" transform="translate(-152.031 -353.045)">
    <path id="パス_6" data-name="パス 6" d="M487.411,197.161l.118.021.016-.02-.034-.054c.008,0,.011,0,.019,0l-.066-.066a.422.422,0,0,1-.17.023l-.251.251C487.225,197.307,487.439,197.245,487.411,197.161Z" transform="translate(-319.349 157.47)" fill="#fff"/>
    <path id="パス_7" data-name="パス 7" d="M486.026,195.023l-.02-.02v.04Z" transform="translate(-318.748 158.65)" fill="#fff"/>
    <path id="パス_11" data-name="パス 11" d="M485.606,194.669l-.035-.035-.048.049C485.549,194.677,485.577,194.673,485.606,194.669Z" transform="translate(-318.469 158.863)" fill="#fff"/>
    <path id="パス_14" data-name="パス 14" d="M464.548,207.419a5.32,5.32,0,0,0-1.357-1.456l-.776-.636c-.133.069-.337-.092-.206-.17l-.872-.717c-.142.01-.353-.132-.385-.045-.15-.024.04-.068,0-.159a.882.882,0,0,0,.189.043c-.833-.687-1.749-1.448-2.59-2.158-.061-.005-.106-.019-.115-.051l.045-.008-.222-.187.273-.317-.1-.017c-.177.031-.591-.063-.6.053-.3-.11.253-.215.2-.37l.152.027.05-.079h.2c.055-.117-.192-.075-.2-.158l.079-.088.122-.072a.781.781,0,0,1,.3-.053l.1.053.1.052a.09.09,0,0,0,.042.142c.287-.323.534-.593.713-.772.894-.894,1.207-.037,2.5-.953a6.679,6.679,0,0,0,.755-.707.346.346,0,0,1-.09-.035l.148-.025,0,0-.049-.078h.125c.228-.24.475-.51.728-.79l-.248,0c.008-.083-.049-.2.1-.211l.108.095.182-.04c.167-.187.333-.374.5-.561a2.188,2.188,0,0,1-.486-.075c.035.106-.02.166-.2.159l.007-.011-.13.13.073.013.151.026v.106l-.151.027-.05.079a.729.729,0,0,0-.228-.046l-.447.447c-.124.124-.29.158-.371.077s-.047-.247.077-.371l.876-.876c0-.008-.008-.015-.008-.024l.027,0,.446-.446c-.093-.023-.19-.044-.283-.068l-1.234,1.234c-.124.124-.29.158-.372.077s-.047-.247.077-.371l1.224-1.223c0-.033-.03-.066-.087-.105h-.159l-1.153,1.153c-.124.124-.29.158-.371.077s-.047-.248.077-.371l2.868-2.868-.158-.158s-.583.475-1.314,1.092l.01.018h-.032c-.333.281-.692.588-1.044.9a.784.784,0,0,0,.271.109c-.012.312-.292.132-.542.128a12.958,12.958,0,0,0-1.509,1.477,2.735,2.735,0,0,0-.516,1.734c.131.018.281.123.252.2-.229.033-.2-.068-.263-.124a1.342,1.342,0,0,1-.038.172.1.1,0,0,1,0,.058l-.017,0a1.33,1.33,0,0,1-.183.342.445.445,0,0,1,.3.029c-.028.065-.213.049-.36.053a2.244,2.244,0,0,1-.153.17c-.321.321-.92.852-1.642,1.473l-.211-.182a.343.343,0,0,1-.149-.034.228.228,0,0,1,.061-.043c-.294-.255-.561-.49-.79-.7h-.074a.039.039,0,0,1,.007-.061c-.208-.188-.385-.353-.513-.482a1.53,1.53,0,0,1-.3-.409h0v0c-.381-.77.094-1.6-.682-2.695a5.445,5.445,0,0,0-.436-.531,1.127,1.127,0,0,0-.19.005c.014-.037.07-.052.144-.057-.046-.049-.1-.1-.147-.149-.048.008-.084.022-.1.048-.136-.016-.084-.133-.1-.212.013,0,.018,0,.029,0a8.286,8.286,0,0,0-2.288-1.516c-.133-.059-.256-.1-.372-.143-.12.012-.252.019-.287.075-.147-.022.031-.066,0-.153a1.3,1.3,0,0,0-1.18.155l-.024.022-.022.024c-.133.152-.45.673.066,1.838.051.116.108.226.164.337.138.012.2.062.189.155a1.025,1.025,0,0,0-.132-.038c.054.1.111.2.168.3h.165l.117.079.184-.027c.147.125.212.1.1.265a1.241,1.241,0,0,0-.427-.072c.107.172.218.335.331.492.1,0,.183.009.2.055l-.05.08.151-.027c.2.1,0,.144,0,.274a6.613,6.613,0,0,0,1.26,1.21c1.3.916,2.212.085,3.106.98.177.177.421.443.7.761h.166v.1h-.072c.186.211.39.444.6.694.106.025.176.068.172.151a.371.371,0,0,1-.151-.055c-.67.569-1.4,1.182-2.115,1.771a1.032,1.032,0,0,1,.253-.024c-.044.066-.129.108-.3.106a.049.049,0,0,1,0-.045l-.189.156a.46.46,0,0,1,.185-.006c.1.032.133.031-.2.053h-.042l-.639.528h.178v.106h-.2v-.086l-.87.715a1.094,1.094,0,0,1,.267.058c-.063.114-.207.044-.351.011l-.9.736c-1.639,1.341-1.777,2.09-1.2,2.665h0c.536.536,1.222.451,2.4-.887a.349.349,0,0,1-.048-.041.173.173,0,0,1,.118-.04c.064-.075.129-.151.2-.234l.6-.731h-.008v-.159a.6.6,0,0,1,.173-.043c.689-.839,1.57-1.908,2.435-2.942-.056-.035-.051-.1.063-.075l.374-.445a.255.255,0,0,1,.119-.14l.311-.368.28.332.068.036c.032.071.252.044.4.053v.106h-.2v.106h-.016c1.327,1.58,2.767,3.338,3.509,4.246,1.341,1.639,2.09,1.778,2.665,1.2h0a1.252,1.252,0,0,0,.175-.217h-.3c-.016-.127.247-.179.359-.115a.907.907,0,0,0-.029-.759c-.07,0-.144-.011-.23-.024A.159.159,0,0,1,464.548,207.419Zm-2.69-8.467a1.172,1.172,0,0,0-.5-.053C461.141,198.866,462.025,198.694,461.859,198.952Zm-.2-.424a.555.555,0,0,1,.31-.1c-.1-.009-.186-.048-.107-.113.162-.016.171.05.3.053.016.042-.058.061-.141.062a.425.425,0,0,1,.141.044C462.251,198.523,461.606,198.564,461.656,198.528Zm-.1-1,.15.027.051-.08.151.027.05-.079c.085-.01.094.021.1.053l-.05.08.151-.027c-.231.15.217.35-.2.423h-.4c-.117-.009-.085-.1-.1-.159l.151.027-.05-.08c.055-.118-.192-.075-.2-.159C461.472,197.586,461.534,197.566,461.556,197.524Zm-.3,1.11c.347.136-.517.128,0,0Zm-.7.634.1.027.1.027c.19.023.607-.072.5.1-.117-.008-.179.013-.2.053l-.151-.027.051.08-.152-.093-.15.093h-.2l.051-.1-.151-.062C460.374,199.318,460.549,199.339,460.551,199.269Zm-.2-1.321c.034.106-.021.165-.2.158-.019-.044.039-.048.1-.052,0-.051-.123-.041-.2-.053C460.062,197.939,460.23,197.956,460.348,197.948Zm-10.161-3.012c-.156-.188.342-.032.3-.16C450.4,194.631,450.744,194.963,450.187,194.936Zm.4,1.426c-.086.009-.1-.021-.1-.053v-.1a.991.991,0,0,0,.4.053C451.178,196.164,450.694,196.336,450.589,196.362Zm.4.1c-.305.2-.339-.16,0,0Zm3.723.423c-.06.005-.127-.075-.1-.106C454.766,196.6,454.8,196.881,454.714,196.891Zm-.3-.317a.782.782,0,0,0,.3.052,1.087,1.087,0,0,1-.5.159C454.263,196.706,454.36,196.651,454.413,196.574Zm-2.315-1.216c.243-.021.219.1.5.053C452.62,195.5,451.943,195.517,452.1,195.358Zm.2.741c.3-.2.339.161,0,0Zm-1.006-.845c-.028-.085.543-.075.3.052C451.635,195.285,451.293,195.249,451.293,195.253Zm.755,1.029-.051.08c-.085-.01-.094.02-.1.053l-.152-.027-.15-.027v-.053l.179-.019-.078-.086c0-.1-.275-.067-.2-.211l.15-.027-.05-.079c.285.044.26-.074.5-.052.149.145-.056.268.1.475Zm.15-.712c.433-.025.129.142.3.158C452.389,195.883,452.174,195.661,452.2,195.57Zm.3.634c.4.026-.024.291-.2.158C452.335,196.293,452.476,196.279,452.5,196.2Zm-.1,1.532v-.159c.162-.015.173.05.3.053v.106Zm.2,1.162c.016-.062.183-.044.3-.053-.112.076-.109.129.1.159C452.854,199.179,452.719,198.915,452.6,198.9Zm.4-.633v-.16C453.3,198.029,453.3,198.342,453,198.265Zm.2-.846c.15.045.144.171.2.264C453.2,197.644,453,197.524,453.206,197.419Zm1.207,2.114h-.2v-.106h.2Zm0-.687c.043-.065.128-.109.3-.105C454.671,198.8,454.586,198.849,454.413,198.846Zm0-.422a1.171,1.171,0,0,0,.5.053C454.826,198.591,454.353,198.638,454.413,198.423Zm.8-.106c-.3.195-.339-.16,0,0Zm1.711,2.854c-.132-.019-.158-.093-.3-.106.017-.062.184-.044.3-.052Zm-4.729,6.183c.044-.065.129-.109.3-.106C452.456,207.313,452.372,207.357,452.2,207.354Zm1.107-.846c.192.023.433.02.4.158C453.634,206.583,453.216,206.679,453.306,206.509Zm.805-1.322h-.2v-.105h.2Zm-.2-.211c.019-.043.1-.053.1-.107h.2C454.258,204.983,454.068,204.971,453.909,204.976Zm1.408-1c-.051.078-.148.133-.2.211C454.776,204.158,454.921,203.907,455.317,203.972Zm-.8.423c.08.009.1.053.2.052-.019.043-.1.053-.1.106-.081-.011-.1-.053-.2-.053C454.431,204.458,454.513,204.448,454.513,204.4Zm-.1.686c.081.01.1.053.2.053C454.56,205.259,454.137,205.166,454.413,205.082Zm.1.264c-.017-.114.357-.024.5-.053C455.033,205.407,454.659,205.317,454.513,205.346Zm.4-1c.011-.1.332-.037.3-.159C455.52,204.247,455.2,204.415,454.916,204.342Zm.5.053c.158-.04.15-.168.4-.159C455.851,204.375,455.681,204.409,455.419,204.4Zm.2-.634c.144.011.035.158.2.158C455.707,204.089,455.534,203.868,455.62,203.761Zm.5-.476h-.2v-.105h.2Zm.3.158c.665-.092-.815.135,0,0Zm-.1-.37v-.053h-.1a.2.2,0,0,1-.1-.211,1.033,1.033,0,0,1,.8.105C456.926,203.072,456.453,202.984,456.324,203.074Zm.906-.793c.372.16-.305.178,0,0Zm.1-.211c-.039-.1.459-.077.3.053h-.2C457.449,202.077,457.392,202.073,457.329,202.07Zm2.516,2.061c-.09.2-.446-.284,0-.212C459.942,204.018,459.544,204.1,459.845,204.131Zm-.1-.74a.777.777,0,0,0,.3.053v.053h.1C460.115,203.609,459.67,203.508,459.745,203.39Zm1.107.793c-.434.069-.125-.251-.5-.211C460.6,203.78,460.794,203.983,460.852,204.183Zm0,.371c-.316.008-.346-.136-.4-.265A.412.412,0,0,1,460.852,204.554Zm-.4.633c.085-.155.323.032.5,0,.03.139-.211.137-.4.159C460.558,205.271,460.566,205.2,460.449,205.187Zm.6.635h-.2v-.106h.2Zm0-.264c-.137-.017-.083-.133-.1-.212.2.127.479-.088.7.053C461.7,205.582,461.111,205.429,461.053,205.558Zm1.207.475h-.3v-.106h.3Zm.3.159c.436.021-.106.306,0,0Zm0,.369c.028-.122.27-.121.4-.053C462.934,206.581,462.712,206.552,462.562,206.561Zm1.107,2.22Zm.1-1.163c.011-.135.376-.125.5-.052C464.289,207.68,463.915,207.589,463.769,207.618Zm.7.37c-.163.015-.174-.049-.3-.053.02-.043.1-.053.1-.105C464.4,207.853,464.479,207.9,464.473,207.988Z" transform="translate(-297.819 159.484)" fill="#fff"/>
    <path id="パス_31" data-name="パス 31" d="M485.977,195.75l-.566.566a.263.263,0,0,1,.05-.008v.053h.1c.008.03.052.042.109.046l.481-.481Z" transform="translate(-318.404 158.217)" fill="#fff"/>
    <path id="パス_43" data-name="パス 43" d="M484.335,200.628c.142,0,.285-.009.3.052l-.051.08.07-.012.119-.137C484.606,200.578,484.41,200.519,484.335,200.628Z" transform="translate(-317.781 155.43)" fill="#fff"/>
    <path id="パス_44" data-name="パス 44" d="M483.293,195.247l-1.231,1.231c.076-.005.139-.018.152-.056l.15.027.05-.08a.091.091,0,0,1,.072.034l1.186-1.186A2.263,2.263,0,0,1,483.293,195.247Z" transform="translate(-316.465 158.526)" fill="#fff"/>
    <path id="パス_45" data-name="パス 45" d="M484.034,198.5l.05-.1-.128-.052-.142.142.017.007c-.05.1.085.111.2.129l.089-.089A.1.1,0,0,0,484.034,198.5Z" transform="translate(-317.48 156.71)" fill="#fff"/>
    <path id="パス_46" data-name="パス 46" d="M486.719,198.427a.32.32,0,0,0,.155.043l.131-.154C486.875,198.309,486.689,198.369,486.719,198.427Z" transform="translate(-319.159 156.732)" fill="#fff"/>
  </g>
</svg>
