<svg xmlns="http://www.w3.org/2000/svg" width="26.383" height="39.909" viewBox="0 0 26.383 39.909">
  <g id="グループ_16" data-name="グループ 16" transform="translate(-799 -8191.164)">
    <path id="パス_1" data-name="パス 1" d="M439.034,236.164c-.111-.01-.054-.051,0-.051a.211.211,0,0,0-.106-.078l-2.26,1.9c-.007.006-.006.016-.012.024.085.02.168.042.233.052a.311.311,0,0,1-.263.056.139.139,0,0,0,.023.074.147.147,0,0,0,.206.018l2.383-2A.433.433,0,0,0,439.034,236.164Z" transform="translate(362.383 7984.951)" fill="#fff"/>
    <path id="パス_2" data-name="パス 2" d="M443.272,234.976a.147.147,0,0,0-.206-.018l-.295.248a.98.98,0,0,1,.193-.007.765.765,0,0,1,.116.129l.174-.146A.146.146,0,0,0,443.272,234.976Z" transform="translate(358.745 7985.608)" fill="#fff"/>
    <path id="パス_3" data-name="パス 3" d="M442.021,242l1.618-1.929h-.006v-.1h.092l.611-.728a.146.146,0,0,0-.224-.188l-1.091,1.3a.821.821,0,0,0,.32.026c-.027.1-.32.066-.442.12l-1.1,1.314a.146.146,0,0,0,.224.188Zm2.2-2.748v.1C443.743,239.4,444.038,239.078,444.217,239.248Z" transform="translate(359.343 7983.198)" fill="#fff"/>
    <path id="パス_6" data-name="パス 6" d="M487.4,197.157l.114.02.016-.019-.033-.052c.008,0,.011,0,.018,0l-.064-.064a.409.409,0,0,1-.165.022l-.243.244C487.22,197.3,487.427,197.239,487.4,197.157Z" transform="translate(332.533 8008.038)" fill="#fff"/>
    <path id="パス_7" data-name="パス 7" d="M486.025,195.023l-.02-.02v.039Z" transform="translate(333.147 8009.246)" fill="#fff"/>
    <path id="パス_8" data-name="パス 8" d="M480.765,171.592l.01-.005.151-.416c-.021-.013-.045-.027-.064-.04.022.008.047.014.071.021l.369-1.014a.146.146,0,0,0-.275-.1l-.153.421a.374.374,0,0,1,.086.007c.038.082-.053.1-.131.117l-.533,1.464a.452.452,0,0,0,.078,0,.308.308,0,0,1-.095.04l-.378,1.038c.13.025.072.071-.039.106l-.068.187a.147.147,0,0,0,.137.2.143.143,0,0,0,.1-.053l0,0-.146-.025c-.041-.107.067-.136.1-.206h.155l.633-1.739Z" transform="translate(336.829 8024.083)" fill="#fff"/>
    <path id="パス_9" data-name="パス 9" d="M439.345,247.7a.146.146,0,0,0-.112.052l-.513.611a.146.146,0,1,0,.224.188l.512-.611a.146.146,0,0,0-.112-.24Z" transform="translate(361.164 7978.043)" fill="#fff"/>
    <path id="パス_10" data-name="パス 10" d="M485.707,177.465l-.088-.1-.009-.108c.2.018.305-.01.292-.1.028.009.059.018.09.026l.4-.69c-.1.007-.232-.007-.336,0l-1.027,1.779a.146.146,0,0,0,.054.2.148.148,0,0,0,.073.02.146.146,0,0,0,.127-.073l.543-.941C485.786,177.471,485.742,177.471,485.707,177.465Z" transform="translate(333.739 8020.207)" fill="#fff"/>
    <path id="パス_11" data-name="パス 11" d="M485.6,194.667l-.033-.033-.047.047C485.548,194.676,485.576,194.672,485.6,194.667Z" transform="translate(333.433 8009.464)" fill="#fff"/>
    <path id="パス_12" data-name="パス 12" d="M449.761,242.319a.146.146,0,0,0-.2.054l-1.8,3.119a.146.146,0,0,0,.253.146l1.8-3.12A.146.146,0,0,0,449.761,242.319Z" transform="translate(355.803 7981.243)" fill="#fff"/>
    <path id="パス_14" data-name="パス 14" d="M464.087,206.984a5.154,5.154,0,0,0-1.314-1.411l-.752-.616c-.129.067-.327-.089-.2-.164l-.845-.695c-.137.01-.341-.128-.373-.044-.145-.023.039-.066,0-.154a.855.855,0,0,0,.184.042c-.806-.665-1.694-1.4-2.508-2.091-.059-.005-.1-.018-.112-.05l.044-.008-.215-.182.265-.307-.094-.016c-.171.03-.572-.061-.585.051-.29-.107.245-.208.194-.359l.147.026.048-.077h.195c.053-.114-.186-.073-.195-.153l.077-.085.118-.069a.756.756,0,0,1,.292-.051l.1.051.1.051a.087.087,0,0,0,.04.137c.278-.312.518-.574.691-.747.866-.866,1.169-.036,2.425-.923a6.464,6.464,0,0,0,.731-.685.334.334,0,0,1-.087-.034l.143-.024,0,0-.048-.076h.121c.221-.232.46-.494.7-.766l-.24,0c.007-.081-.047-.2.1-.2l.1.092.177-.039c.161-.181.323-.363.481-.543a2.118,2.118,0,0,1-.47-.073c.033.1-.019.161-.195.154l.007-.011-.126.126.071.013.146.025v.1l-.146.026-.048.076a.707.707,0,0,0-.221-.044l-.433.433c-.12.12-.281.153-.359.074s-.046-.239.075-.359l.848-.848c0-.008-.008-.014-.007-.023l.026,0,.432-.432c-.09-.022-.184-.043-.275-.066l-1.195,1.2c-.12.12-.281.153-.36.075s-.045-.239.075-.36l1.185-1.185c0-.032-.029-.064-.084-.1h-.154l-1.117,1.117c-.12.12-.281.153-.36.075s-.046-.24.075-.36l2.778-2.778-.153-.153s-.565.46-1.273,1.057l.009.018h-.031c-.322.272-.67.569-1.012.868a.76.76,0,0,0,.263.105c-.011.3-.283.128-.525.124a12.556,12.556,0,0,0-1.461,1.43,2.65,2.65,0,0,0-.5,1.68c.127.017.273.119.244.2-.222.032-.2-.066-.255-.12a1.3,1.3,0,0,1-.037.166.1.1,0,0,1,0,.056l-.017,0a1.289,1.289,0,0,1-.177.331.431.431,0,0,1,.291.028c-.027.063-.206.048-.349.051a2.178,2.178,0,0,1-.148.164c-.311.311-.891.826-1.591,1.427l-.2-.176a.333.333,0,0,1-.145-.033.22.22,0,0,1,.059-.041c-.285-.247-.544-.474-.766-.675h-.072a.038.038,0,0,1,.007-.059c-.2-.182-.372-.342-.5-.467a1.48,1.48,0,0,1-.287-.4h0v0c-.369-.746.091-1.546-.661-2.61a5.269,5.269,0,0,0-.423-.514,1.093,1.093,0,0,0-.184,0c.013-.036.068-.05.139-.055-.045-.048-.094-.1-.142-.144-.047.008-.082.021-.095.046-.132-.016-.081-.128-.1-.205.012,0,.018,0,.028,0a8.024,8.024,0,0,0-2.216-1.469c-.129-.057-.248-.1-.361-.139-.117.012-.244.018-.278.073-.142-.021.03-.064,0-.148a1.261,1.261,0,0,0-1.143.151l-.023.021-.021.023c-.129.148-.436.652.064,1.781.05.112.1.219.159.327.134.012.2.06.183.151a.989.989,0,0,0-.128-.037c.052.1.108.2.163.293h.16l.114.077.179-.026c.143.121.206.1.1.257a1.2,1.2,0,0,0-.413-.07c.1.166.211.324.321.476.1,0,.178.009.19.053l-.049.077.146-.026c.192.1,0,.14,0,.266a6.4,6.4,0,0,0,1.22,1.172c1.256.887,2.143.082,3.009.949.171.171.408.429.682.737h.161v.1h-.07c.18.2.377.43.586.672.1.024.171.066.166.146a.359.359,0,0,1-.146-.053c-.649.551-1.36,1.145-2.048,1.715a1,1,0,0,1,.245-.023c-.042.064-.125.1-.292.1a.048.048,0,0,1,0-.044l-.183.151a.445.445,0,0,1,.179-.006c.095.031.129.03-.2.051h-.04l-.619.511h.172v.1h-.2v-.084l-.842.693a1.059,1.059,0,0,1,.258.056c-.061.11-.2.042-.34.011l-.87.713c-1.588,1.3-1.721,2.024-1.165,2.581h0c.519.519,1.184.437,2.322-.859a.337.337,0,0,1-.046-.04.168.168,0,0,1,.114-.039c.062-.073.125-.146.191-.226l.58-.708h-.007v-.154a.586.586,0,0,1,.168-.042c.667-.813,1.52-1.848,2.358-2.85-.054-.033-.049-.092.061-.073l.362-.431a.247.247,0,0,1,.115-.136l.3-.357.272.322.066.035c.031.069.244.042.39.051v.1h-.195v.1h-.015c1.285,1.53,2.68,3.234,3.4,4.113,1.3,1.588,2.025,1.722,2.581,1.165h0a1.214,1.214,0,0,0,.17-.21h-.289c-.015-.123.239-.173.348-.111a.878.878,0,0,0-.028-.735c-.068,0-.139-.011-.222-.023A.154.154,0,0,1,464.087,206.984Zm-2.605-8.2a1.136,1.136,0,0,0-.488-.051C460.786,198.7,461.643,198.533,461.482,198.782Zm-.2-.41a.538.538,0,0,1,.3-.094c-.1-.009-.18-.047-.1-.11.157-.015.166.049.292.051.016.041-.056.06-.136.06a.413.413,0,0,1,.136.043C461.862,198.367,461.237,198.407,461.285,198.372Zm-.1-.972.146.026.05-.077.146.026.049-.077c.082-.009.091.02.1.051l-.049.077.146-.026c-.224.146.21.339-.195.41h-.39c-.114-.009-.082-.093-.1-.154l.146.026-.049-.077c.054-.114-.186-.073-.195-.154C461.107,197.459,461.167,197.44,461.188,197.4Zm-.293,1.075c.336.132-.5.124,0,0Zm-.681.614.1.026.1.026c.184.022.588-.07.487.1-.113-.008-.173.012-.195.052l-.146-.026.049.077-.147-.09-.146.09h-.2l.049-.094-.146-.06C460.044,199.137,460.213,199.158,460.215,199.09Zm-.2-1.28c.033.1-.02.16-.195.153-.018-.043.038-.047.1-.051,0-.05-.119-.04-.195-.051C459.742,197.8,459.9,197.818,460.019,197.81Zm-9.842-2.917c-.151-.182.331-.031.292-.155C450.38,194.6,450.716,194.919,450.176,194.893Zm.39,1.382c-.083.009-.093-.02-.1-.052v-.1a.96.96,0,0,0,.39.051C451.136,196.082,450.668,196.249,450.566,196.274Zm.389.1c-.3.19-.328-.155,0,0Zm3.606.41c-.058.005-.123-.072-.1-.1C454.611,196.5,454.649,196.777,454.562,196.786Zm-.292-.307a.758.758,0,0,0,.292.051,1.052,1.052,0,0,1-.487.154C454.124,196.607,454.219,196.554,454.27,196.479Zm-2.242-1.178c.235-.02.212.095.487.051C452.533,195.436,451.877,195.456,452.028,195.3Zm.195.718c.3-.19.329.156,0,0Zm-.974-.819c-.027-.082.526-.073.292.05C451.578,195.231,451.247,195.2,451.248,195.2Zm.731,1-.049.078c-.083-.009-.091.02-.1.051l-.147-.026-.146-.026v-.052l.174-.018-.076-.084c0-.1-.266-.065-.2-.2l.146-.027-.048-.077c.276.042.252-.072.487-.051.144.141-.054.259.1.46Zm.146-.69c.419-.024.125.137.293.153C452.309,195.81,452.1,195.6,452.125,195.507Zm.293.614c.39.025-.023.282-.2.153C452.257,196.207,452.394,196.194,452.418,196.121Zm-.1,1.484v-.154c.157-.014.167.048.292.051v.1Zm.195,1.126c.016-.06.177-.043.292-.051-.109.074-.105.125.1.154C452.759,199,452.629,198.747,452.515,198.731Zm.39-.614v-.155C453.189,197.889,453.189,198.192,452.9,198.117Zm.2-.82c.145.044.14.165.195.256C453.1,197.516,452.9,197.4,453.1,197.3Zm1.169,2.048h-.2v-.1h.2Zm0-.666c.042-.063.124-.106.292-.1C454.519,198.64,454.437,198.683,454.27,198.68Zm0-.409a1.134,1.134,0,0,0,.487.051C454.67,198.433,454.212,198.478,454.27,198.271Zm.779-.1c-.3.188-.328-.155,0,0Zm1.657,2.764c-.128-.019-.153-.09-.292-.1.016-.06.178-.042.292-.05Zm-4.581,5.989c.042-.063.125-.106.293-.1C452.374,206.881,452.293,206.924,452.125,206.921Zm1.072-.819c.186.022.419.019.39.153C453.515,206.174,453.111,206.267,453.2,206.1Zm.78-1.28h-.2v-.1h.2Zm-.2-.2c.019-.042.1-.052.1-.1h.2C454.12,204.625,453.935,204.613,453.782,204.618Zm1.364-.973c-.05.076-.144.128-.194.2C454.622,203.825,454.762,203.582,455.146,203.645Zm-.779.41c.078.009.1.051.195.051-.019.041-.1.051-.1.1-.079-.01-.1-.052-.194-.051C454.287,204.115,454.367,204.106,454.367,204.055Zm-.1.665c.079.01.1.051.194.051C454.412,204.892,454,204.8,454.27,204.72Zm.1.256c-.017-.111.345-.023.487-.051C454.87,205.035,454.508,204.948,454.367,204.976Zm.39-.972c.011-.1.322-.036.292-.154C455.342,203.911,455.034,204.074,454.757,204Zm.487.051c.153-.039.145-.163.39-.154C455.663,204.036,455.5,204.069,455.244,204.055Zm.195-.614c.14.011.034.153.195.153C455.523,203.759,455.355,203.544,455.439,203.441Zm.487-.461h-.2v-.1h.2Zm.292.153c.644-.089-.789.131,0,0Zm-.1-.358v-.051h-.1a.2.2,0,0,1-.1-.2,1,1,0,0,1,.779.1C456.7,202.774,456.245,202.688,456.12,202.775Zm.877-.768c.361.155-.3.173,0,0Zm.1-.2c-.038-.1.445-.075.293.051h-.195C457.211,201.81,457.155,201.805,457.094,201.8Zm2.437,2c-.087.192-.432-.275,0-.205C459.625,203.69,459.239,203.765,459.531,203.8Zm-.1-.717a.752.752,0,0,0,.292.051v.051h.1C459.793,203.293,459.362,203.2,459.434,203.082Zm1.072.768c-.42.067-.121-.243-.487-.2C460.264,203.459,460.45,203.655,460.506,203.85Zm0,.359c-.306.007-.335-.131-.39-.257A.4.4,0,0,1,460.506,204.209Zm-.39.614c.082-.15.313.031.487,0,.029.135-.2.133-.389.154C460.222,204.9,460.23,204.831,460.116,204.822Zm.585.615h-.195v-.1h.195Zm0-.256c-.133-.016-.081-.129-.1-.205.194.123.464-.086.682.051C461.331,205.2,460.757,205.056,460.7,205.181Zm1.169.46h-.292v-.1h.292Zm.293.154c.422.021-.1.3,0,0Zm0,.358c.027-.118.261-.117.39-.051C462.523,206.172,462.308,206.145,462.163,206.153Zm1.072,2.15Zm.1-1.127c.01-.131.364-.121.487-.051C463.836,207.237,463.474,207.148,463.332,207.177Zm.682.359c-.157.015-.168-.048-.293-.051.019-.041.1-.051.1-.1C463.94,207.4,464.02,207.448,464.014,207.535Z" transform="translate(354.554 8010.099)" fill="#fff"/>
    <path id="パス_17" data-name="パス 17" d="M486.389,244.581c-.011.045-.053.074-.119.091l.435.753a.616.616,0,0,1,.3-.068l-1.723-2.985a.146.146,0,0,0-.127-.073.148.148,0,0,0-.073.02.147.147,0,0,0-.054.2l.629,1.091h.148c.026.061-.023.083-.1.093l.507.878C486.277,244.582,486.339,244.585,486.389,244.581Z" transform="translate(333.739 7981.243)" fill="#fff"/>
    <path id="パス_18" data-name="パス 18" d="M496.815,237.48a.147.147,0,0,0-.018-.206l-2.76-2.315a.146.146,0,0,0-.188.224l2.76,2.315A.147.147,0,0,0,496.815,237.48Z" transform="translate(328.534 7985.608)" fill="#fff"/>
    <path id="パス_20" data-name="パス 20" d="M475.139,249.892l-.082-.465c-.049-.027-.092-.053-.12-.064a.217.217,0,0,1,.1-.054l-.523-2.964a.147.147,0,0,0-.144-.121l-.026,0a.146.146,0,0,0-.119.169l.072.407a.2.2,0,0,0,.152.053c-.044.08-.09.07-.136.04l.159.9c.269-.05.248.175.018.1l.2,1.117c.147.032.279.073.25.2-.075-.013-.151-.025-.222-.04l.088.5a1.136,1.136,0,0,0,.231,0,.794.794,0,0,1-.219.071l.036.2a.146.146,0,1,0,.288-.051Z" transform="translate(340.123 7978.918)" fill="#fff"/>
    <path id="パス_21" data-name="パス 21" d="M462.2,246.226l-.026,0a.147.147,0,0,0-.144.121l-.625,3.547a.146.146,0,0,0,.288.051l.625-3.547A.146.146,0,0,0,462.2,246.226Z" transform="translate(347.713 7978.918)" fill="#fff"/>
    <path id="パス_22" data-name="パス 22" d="M455.784,244.742a.143.143,0,0,0-.05-.009.146.146,0,0,0-.137.1l-.9,2.476v.048h-.018l-.313.86a.146.146,0,1,0,.275.1l1.232-3.384A.147.147,0,0,0,455.784,244.742Z" transform="translate(351.887 7979.801)" fill="#fff"/>
    <path id="パス_23" data-name="パス 23" d="M468.779,259.034v-.8a.146.146,0,1,0-.293,0v.239c.066-.025.155-.055.13-.091.323.05-.109.1-.1.154l-.032-.005v.5a.146.146,0,1,0,.293,0Z" transform="translate(343.52 7971.892)" fill="#fff"/>
    <path id="パス_25" data-name="パス 25" d="M468.487,249.052v1.422a.146.146,0,1,0,.293,0v-.238a.479.479,0,0,0-.26-.013.508.508,0,0,1,.26-.065v-.612a.983.983,0,0,1-.26.011c.01-.152.1-.142.26-.119v-.552c-.08.005-.179,0-.26,0,.022-.05.141-.049.26-.049v-1.971a.146.146,0,0,0-.282-.053c.05.023.038.042-.011.056V249a.617.617,0,0,0,.13,0C468.624,249.04,468.566,249.051,468.487,249.052Z" transform="translate(343.52 7978.621)" fill="#fff"/>
    <path id="パス_26" data-name="パス 26" d="M449.688,176.438a.146.146,0,0,0,.126-.219l-1.295-2.243c-.086,0-.181.005-.275.006-.017-.084.084-.106.212-.115l-.443-.767a.146.146,0,1,0-.253.146l.115.2c.03-.024.077-.039.077-.079h.195c.042.1-.114.1-.259.1l1.673,2.9A.146.146,0,0,0,449.688,176.438Z" transform="translate(355.803 8022.258)" fill="#fff"/>
    <path id="パス_31" data-name="パス 31" d="M485.959,195.75l-.548.548a.255.255,0,0,1,.048-.007v.051h.1c.007.029.051.04.106.045l.466-.466Z" transform="translate(333.499 8008.803)" fill="#fff"/>
    <path id="パス_32" data-name="パス 32" d="M498.354,182.454a.061.061,0,0,1-.014-.03.145.145,0,0,0-.2-.016l-1.023.859c.08.028.144.086.1.139-.138.018-.156-.027-.192-.063l-.128.108a.1.1,0,0,0,.029.006.139.139,0,0,1-.089.045l-.453.38a1.121,1.121,0,0,0,.25.036l-.049.077.042.066.384-.322a.3.3,0,0,0-.279-.076c.025-.119.264-.1.4-.023l1.2-1.007A.141.141,0,0,0,498.354,182.454Z" transform="translate(327.003 8016.722)" fill="#fff"/>
    <path id="パス_33" data-name="パス 33" d="M454.454,169.951a.14.14,0,0,0-.064.05.216.216,0,0,1-.024.049.146.146,0,0,0,0,.089l.548,1.5h.27v.2l-.179-.025-.021.014.276.758c.081-.031.2-.01.217.073.072-.006.079-.046.091-.084l-.926-2.545A.146.146,0,0,0,454.454,169.951Z" transform="translate(351.885 8024.083)" fill="#fff"/>
    <path id="パス_34" data-name="パス 34" d="M443.633,179.224c.018-.044-.038-.049-.1-.052-.009-.023.012-.039.045-.049l-1.56-1.859a.146.146,0,1,0-.224.188l2.315,2.759a.146.146,0,0,0,.224-.188l-.027-.033h-.091a.385.385,0,0,1-.075-.2l-.478-.57Zm-.682-.563c-.327-.047-.049-.1-.1-.256C443.065,178.4,442.9,178.587,442.951,178.661Z" transform="translate(359.343 8019.779)" fill="#fff"/>
    <path id="パス_35" data-name="パス 35" d="M439.316,173.748a.147.147,0,0,0-.206-.018.137.137,0,0,0-.039.139c.063.016.1.049.045.1l.1.113v-.059h.333Z" transform="translate(360.939 8021.861)" fill="#fff"/>
    <path id="パス_37" data-name="パス 37" d="M493.831,187.4a.146.146,0,0,0,.206.018l1.036-.869a.459.459,0,0,1-.166.044v.051l-.146-.025-.146.025c-.043.008-.089.014-.134.02l-.631.529A.147.147,0,0,0,493.831,187.4Z" transform="translate(328.534 8014.249)" fill="#fff"/>
    <path id="パス_38" data-name="パス 38" d="M440.168,174.986a.138.138,0,0,0-.023-.074l-.237-.282c-.037.064-.173.076-.308.088l.32.382a.147.147,0,0,0,.045.035c.039,0,.077,0,.112,0a.131.131,0,0,0,.049-.018c.011-.009.01-.022.018-.033h-.032C440.094,175.033,440.134,175.011,440.168,174.986Z" transform="translate(360.623 8021.308)" fill="#fff"/>
    <path id="パス_40" data-name="パス 40" d="M453.1,255.422a.142.142,0,0,0-.05-.009.147.147,0,0,0-.137.1l-.272.749a.146.146,0,0,0,.275.1l.272-.749A.146.146,0,0,0,453.1,255.422Z" transform="translate(352.908 7973.478)" fill="#fff"/>
    <path id="パス_43" data-name="パス 43" d="M484.335,200.626c.138,0,.276-.009.292.051l-.05.078.068-.012.115-.133C484.6,200.577,484.407,200.52,484.335,200.626Z" transform="translate(334.137 8005.953)" fill="#fff"/>
    <path id="パス_44" data-name="パス 44" d="M483.254,195.246l-1.192,1.192c.073-.005.135-.017.148-.054l.146.026.049-.077a.088.088,0,0,1,.07.033l1.149-1.149A2.194,2.194,0,0,1,483.254,195.246Z" transform="translate(335.482 8009.119)" fill="#fff"/>
    <path id="パス_45" data-name="パス 45" d="M484.027,198.5l.049-.093-.124-.051-.137.137.016.006c-.049.1.082.107.192.125l.086-.086A.1.1,0,0,0,484.027,198.5Z" transform="translate(334.444 8007.262)" fill="#fff"/>
    <path id="パス_46" data-name="パス 46" d="M486.719,198.424a.31.31,0,0,0,.15.041l.126-.149C486.869,198.309,486.69,198.367,486.719,198.424Z" transform="translate(332.727 8007.284)" fill="#fff"/>
    <path id="パス_47" data-name="パス 47" d="M474.344,171.89l.026,0a.146.146,0,0,0,.144-.121l.008-.045c-.051.046-.149.066-.17.128-.132-.016-.081-.128-.1-.2h.2c-.016.038.026.046.077.049l.155-.882a.363.363,0,0,1-.135-.038.3.3,0,0,1,.151-.055l.3-1.7c-.077-.034-.046-.124-.061-.191a.335.335,0,0,1,.091.02l.111-.631a.146.146,0,1,0-.288-.051l-.1.567c.027,0,.051-.006.088-.007-.1.066-.027.222-.136.283l-.477,2.7A.147.147,0,0,0,474.344,171.89Z" transform="translate(340.123 8025.202)" fill="#fff"/>
    <path id="パス_48" data-name="パス 48" d="M468.969,163.073a.146.146,0,0,0-.293,0v.014h.248c.028.082-.092.089-.1.154h-.151v.629a.146.146,0,1,0,.293,0Z" transform="translate(343.408 8028.237)" fill="#fff"/>
    <path id="パス_49" data-name="パス 49" d="M468.969,167.563a.146.146,0,0,0-.293,0v1a.428.428,0,0,0,.053,0l.049.076.146.026c-.113.046-.121.147-.248.188v2.314a.146.146,0,0,0,.293,0Zm-.045,1.92h-.195v-.1h.195Zm-.1-.206c-.115-.008-.082-.093-.1-.153.166-.02.184.04.195.1C468.841,169.217,468.832,169.247,468.826,169.278Z" transform="translate(343.408 8025.579)" fill="#fff"/>
    <path id="パス_50" data-name="パス 50" d="M488.641,173.245a.146.146,0,1,0-.253-.146l-.746,1.292a.934.934,0,0,1,.368-.052Z" transform="translate(332.179 8022.258)" fill="#fff"/>
    <path id="パス_51" data-name="パス 51" d="M457.106,177.25c-.089.013-.1.064-.16.094l.184.506a.146.146,0,0,0,.137.1.142.142,0,0,0,.05-.009.146.146,0,0,0,.087-.187l-.141-.387a.717.717,0,0,1-.255.04C457.06,177.362,457.11,177.32,457.106,177.25Z" transform="translate(350.353 8019.756)" fill="#fff"/>
    <path id="パス_52" data-name="パス 52" d="M462.177,171.892l.026,0a.147.147,0,0,0,.119-.17l-.625-3.547a.146.146,0,1,0-.288.051l.625,3.547A.146.146,0,0,0,462.177,171.892Z" transform="translate(347.713 8025.202)" fill="#fff"/>
    <path id="パス_53" data-name="パス 53" d="M483.96,166.756a.145.145,0,0,0,.05.009.146.146,0,0,0,.138-.1l.272-.749a.146.146,0,1,0-.275-.1l-.2.556c.052.04.022.065-.027.074l-.043.12A.146.146,0,0,0,483.96,166.756Z" transform="translate(334.415 8026.582)" fill="#fff"/>
    <path id="パス_54" data-name="パス 54" d="M453.248,166.6a.147.147,0,0,0,.137-.2v0a1.777,1.777,0,0,1-.275.04c-.029-.108.077-.144.234-.154l-.23-.631a.146.146,0,1,0-.275.1l.272.749A.147.147,0,0,0,453.248,166.6Z" transform="translate(352.791 8026.682)" fill="#fff"/>
    <path id="パス_55" data-name="パス 55" d="M494.693,177.247a.146.146,0,0,0-.206.018l-.485.577h.224l-.049.077.049.076-.146.025.049.077c-.37-.024-.347.293-.31.418l.892-1.063A.146.146,0,0,0,494.693,177.247Z" transform="translate(328.533 8019.779)" fill="#fff"/>
    <path id="パス_56" data-name="パス 56" d="M436.635,182.426a.147.147,0,0,0,.018.206l2.76,2.315a.146.146,0,0,0,.188-.224l-2.76-2.315A.146.146,0,0,0,436.635,182.426Z" transform="translate(362.399 8016.723)" fill="#fff"/>
    <path id="パス_57" data-name="パス 57" d="M492.7,181.062c.083-.009.092.02.1.051a.428.428,0,0,0,.084,0l.082-.1C492.831,181.006,492.711,181.007,492.7,181.062Z" transform="translate(329.186 8017.532)" fill="#fff"/>
    <path id="パス_58" data-name="パス 58" d="M489.871,183.254a.146.146,0,0,0,.112-.052l.755-.9a1.12,1.12,0,0,1-.348-.041l-.631.752a.146.146,0,0,0,.018.206A.144.144,0,0,0,489.871,183.254Z" transform="translate(330.945 8016.789)" fill="#fff"/>
    <path id="パス_59" data-name="パス 59" d="M497.366,175.212a.146.146,0,0,0,.112-.052l.3-.354h-.063l-.145-.128-.146.128h-.028l-.139.166a.146.146,0,0,0,.018.206A.144.144,0,0,0,497.366,175.212Z" transform="translate(326.508 8021.28)" fill="#fff"/>
    <path id="パス_60" data-name="パス 60" d="M491.864,181.627l-.035-.009-.045.054A.113.113,0,0,0,491.864,181.627Z" transform="translate(329.726 8017.17)" fill="#fff"/>
    <path id="パス_61" data-name="パス 61" d="M498.73,173.808a.146.146,0,0,0-.206.018l-.025.029a.6.6,0,0,1,.167.006c.057.162-.18.158,0,.254l.084-.1A.146.146,0,0,0,498.73,173.808Z" transform="translate(325.75 8021.815)" fill="#fff"/>
    <path id="パス_62" data-name="パス 62" d="M489.353,250.129a.146.146,0,1,0,.253-.146l-.057-.1a.4.4,0,0,1-.277.106Z" transform="translate(331.213 7976.751)" fill="#fff"/>
    <path id="パス_63" data-name="パス 63" d="M490.839,240.272c.036-.026.068-.054.1-.082l-.544-.648a1.034,1.034,0,0,0-.337-.038c-.016-.047.131-.069.255-.06l-.118-.141a.919.919,0,0,1-.235,0,.608.608,0,0,1,.1-.152l-.083-.1a.146.146,0,1,0-.224.188l2.315,2.76a.146.146,0,0,0,.224-.188l-1.282-1.528A1.291,1.291,0,0,1,490.839,240.272Z" transform="translate(330.945 7983.198)" fill="#fff"/>
    <path id="パス_64" data-name="パス 64" d="M497.008,247.78a.146.146,0,0,0-.112.24l.512.611a.146.146,0,0,0,.224-.188l-.513-.611A.146.146,0,0,0,497.008,247.78Z" transform="translate(326.72 7977.997)" fill="#fff"/>
    <path id="パス_67" data-name="パス 67" d="M484.134,256.616a.146.146,0,0,0,.087-.188l-.272-.749a.146.146,0,0,0-.137-.1.155.155,0,0,0-.05.009.146.146,0,0,0-.087.188l.024.066a.1.1,0,0,1,.042.114l.12.33c.13.013.19.062.176.15a.768.768,0,0,1-.122,0l.033.093A.147.147,0,0,0,484.134,256.616Z" transform="translate(334.533 7973.377)" fill="#fff"/>
    <path id="パス_74" data-name="パス 74" d="M481.155,248.41v-.083h.143a.147.147,0,0,0,.005-.113l-.33-.906a.039.039,0,0,1-.012-.033l-.5-1.38a.336.336,0,0,1-.084-.026c0-.029.018-.044.056-.052l-.36-.988a.143.143,0,0,0-.183-.089v0h-.008a.146.146,0,0,0-.084.186l1.232,3.384A.146.146,0,0,0,481.155,248.41Z" transform="translate(336.829 7979.801)" fill="#fff"/>
  </g>
</svg>
