<svg xmlns="http://www.w3.org/2000/svg" width="21.37" height="21.397" viewBox="0 0 21.37 21.397">
  <g id="_002-phone-call" data-name="002-phone-call" transform="translate(3.49 -0.121) rotate(13)">
    <g id="グループ_2" data-name="グループ 2" transform="translate(0.539 0)">
      <path id="パス_79" data-name="パス 79" d="M17.883,13.1l-2.491-2.491a1.657,1.657,0,0,0-2.758.623A1.7,1.7,0,0,1,10.678,12.3,7.681,7.681,0,0,1,6.052,7.673,1.612,1.612,0,0,1,7.119,5.716a1.657,1.657,0,0,0,.623-2.758L5.251.467a1.777,1.777,0,0,0-2.4,0l-1.69,1.69c-1.69,1.779.178,6.494,4.359,10.675s8.9,6.138,10.675,4.359l1.69-1.69A1.777,1.777,0,0,0,17.883,13.1Z" transform="translate(-0.539 0)" fill="#fff"/>
    </g>
  </g>
</svg>
