<svg xmlns="http://www.w3.org/2000/svg" width="313.228" height="354.419" viewBox="0 0 313.228 354.419">
  <g id="グループ_4" data-name="グループ 4" transform="translate(-110.142 -155.535)">
    <path id="パス_80" data-name="パス 80" d="M154.537,215.217a1.462,1.462,0,0,0,.64.374l.123-.475-.15-.581h-.613Z" transform="translate(22.783 30.278)" fill="#fff"/>
    <path id="パス_81" data-name="パス 81" d="M160.169,358.458a7.111,7.111,0,0,0-2.412-3.4l-2.506-2.152a.859.859,0,0,1-.071.389c-.1.185-.278-.286-.4-.793l-.577-.5a1.238,1.238,0,0,0-.69-.3.692.692,0,0,0-.628.25l-5.646,6.573h0v1.162h-.608v-.457l-1.751,2.04c.067.044.138.094.222.16.475,2.447-1.574.1-1.525,1.74a.356.356,0,0,1-.162-.2l-1.192,1.389a3.992,3.992,0,0,0-.171,1.714c-.245-.107-.286-.608-.291-1.177l-.8.937a.7.7,0,0,0-.148.61,1.155,1.155,0,0,0,.418.664l3.482,2.989c-.275-.788-.107-1.937.7-1.7a5.594,5.594,0,0,1,.309,2.32.665.665,0,0,1-.18.056,5.423,5.423,0,0,0,3.583,1.316,5.613,5.613,0,0,0,3.919-2.308l.319-.372a5.426,5.426,0,0,0,1.433-2.756,4.327,4.327,0,0,0-.545-2.584,3.372,3.372,0,0,0,2.185-.071c.12-.587.577-1.053.825-.378a6.725,6.725,0,0,0,1.657-1.431Q160.641,360.19,160.169,358.458Zm-8.046,9.945c-.182-.08-.25-.38-.275-.758-.053.067-.092.13-.15.2l-.3.353a6.131,6.131,0,0,1-.764.743,4.66,4.66,0,0,0-.032.628c-.107.023-.222-.136-.34-.345-1.271.846-2.585.7-3.939-.466l-2.494-2.141c.135.378.315.667.669.628.056,2.14-1.885-.72-1.831-2.326.678-.222.837.545,1.024,1.257l2.152-2.506a7.745,7.745,0,0,1-.43-2.236,6.479,6.479,0,0,1,1.012,1.557l2.164-2.519,2.789,2.4A3.637,3.637,0,0,1,152.8,365.2a2.872,2.872,0,0,1-.431,1.674c.123.318.28.569.675.368C152.977,368.079,152.131,367.443,152.124,368.4Zm4.847-7.451a3.247,3.247,0,0,1-2.18,1.324,3.46,3.46,0,0,1-2.376-1.037l-2.583-2.218,3.383-3.94a3.834,3.834,0,0,0,.133-.62.468.468,0,0,1,.336.076l.123-.142.752.645h.011l0,.008,1.76,1.512Q158.867,358.741,156.97,360.952Zm2.483.478c-.673-.074-.132-2.467-.306-3.485C159.821,358.015,159.276,360.407,159.453,361.43Z" transform="translate(15.733 100.668)" fill="#fff"/>
    <path id="パス_82" data-name="パス 82" d="M136.024,256.191l.148-.561h-5.614a6.009,6.009,0,0,1,1.026,2.409,36.679,36.679,0,0,1,4.767.344C136.154,257.815,136.689,255.859,136.024,256.191Z" transform="translate(10.477 51.368)" fill="#fff"/>
    <path id="パス_83" data-name="パス 83" d="M189.409,375.511a1.284,1.284,0,0,0,.455-.627,1.2,1.2,0,0,0,.051-.566c-.009-.055-.015-.113-.023-.172a.689.689,0,0,0-.458-.486L183.4,371.5c-.054.552-.229,1.168-.557.935-.543-.471.212-.377.291-1.03L179,369.926a.7.7,0,0,0-.667.086,1.176,1.176,0,0,0-.442.589,1.257,1.257,0,0,0-.048.785.693.693,0,0,0,.46.489l4.155,1.487-.946,2.644a.64.64,0,0,1,.424-.088c-.239.763-.419,1.633-1.014,1.734l-1.309,3.659a1.963,1.963,0,0,0,.492.418l-.15.584.15.581v.58l-.459-.292-.151.872a1.544,1.544,0,0,1-1.167.853l-1.6,4.481a.685.685,0,0,0,.12.682,1.592,1.592,0,0,0,1.513.54.679.679,0,0,0,.522-.451l.245-.684c-.166.351-.525.336-.546.97a8.52,8.52,0,0,1-.919-3.488c.867-.094.719,1.746,1.527,1.746a1.7,1.7,0,0,1-.012.633l5.437-15.2,1.288.461v-1c.259.1.291-.229.306-.581.422-.163.468,1.262.183,1.752l2.353.843A.694.694,0,0,0,189.409,375.511Z" transform="translate(34.145 109.998)" fill="#fff"/>
    <path id="パス_84" data-name="パス 84" d="M168.6,334.508a2.145,2.145,0,1,0,2.144-2.146A2.145,2.145,0,0,0,168.6,334.508Z" transform="translate(29.998 90.745)" fill="#fff"/>
    <path id="パス_85" data-name="パス 85" d="M143.024,227.492a4.4,4.4,0,0,1-.045-.729c-.074-.834-.915-.2-.917-1.158l.153-.584-.153-.581h.3a5.046,5.046,0,0,1,.174-1.307l-.645-.542-.292-.186.153.876c-.522.183-.256,1.866-.363,2.84Z" transform="translate(16.036 34.317)" fill="#fff"/>
    <path id="パス_86" data-name="パス 86" d="M144.49,203.747l2.5,2.979a1.52,1.52,0,0,0,.564-.469l.151.875.151-.875c.354-.741,1.306-.35,1.487-1.434l-8.264-9.848a1.516,1.516,0,0,0-2.132-.186,1.493,1.493,0,0,0-.513.952c0,.048-.011.1-.015.144a1.494,1.494,0,0,0,.342,1.037l4.2,5C143.594,201.386,144.485,202,144.49,203.747Zm-2.43-4.459c.056-.471.3-.578.3-1.161.245.11.306.583.61.58-.059.472-.3.581-.3,1.162C142.42,199.761,142.364,199.287,142.06,199.287Z" transform="translate(14.511 19.963)" fill="#fff"/>
    <path id="パス_87" data-name="パス 87" d="M183.441,287.526h-.4l.04.228Z" transform="translate(37.413 67.736)" fill="#fff"/>
    <path id="パス_88" data-name="パス 88" d="M185.127,289.923l-.132-.328v-.971c.841.648.814-.36.929-1.1h-9.279c.466,1.239,1.07.781,1.944,2.258v.139Z" transform="translate(34.129 67.736)" fill="#fff"/>
    <path id="パス_89" data-name="パス 89" d="M167.164,368.187a5.8,5.8,0,0,0-.455,1.179,1.01,1.01,0,0,1,.067.1,1.778,1.778,0,0,1-.222.841,3.93,3.93,0,0,0,.051.953,5.657,5.657,0,0,0,1.2,2.56q.912,1.108,1.845,2.146a6.105,6.105,0,0,1,1.319,2.3,3.325,3.325,0,0,1-.307,2.591,3.131,3.131,0,0,1-2.058,1.767,4.168,4.168,0,0,1-2.861-.525,5.378,5.378,0,0,1-1.581-1.209,3.591,3.591,0,0,1-.781-1.27c-.026-.086-.054-.157-.082-.242a4.591,4.591,0,0,0-.186,2.285c-1.059-.451-.363-2-.011-2.875-.024-.067-.045-.145-.07-.209a1.081,1.081,0,0,0-.4-.592.884.884,0,0,0-.805.041,1.373,1.373,0,0,0-.667.6q-.458.878.557,2.554a7.737,7.737,0,0,0,3.164,2.8,6.326,6.326,0,0,0,4.5.735,4.358,4.358,0,0,0,.8-.3c.061-.2.163-.236.284-.133a5.96,5.96,0,0,0,2.324-2.565,5.735,5.735,0,0,0,.735-3.411,5.552,5.552,0,0,0-1.091-2.736q-.883-1.135-1.84-2.156a7.116,7.116,0,0,1-1.418-2.138,2.52,2.52,0,0,1,.118-2.227,2.4,2.4,0,0,1,1.9-1.436,4.755,4.755,0,0,1,2.693.639,6.081,6.081,0,0,1,2.006,1.63,9.152,9.152,0,0,0,.87,1.038.813.813,0,0,0,.831-.06,1.578,1.578,0,0,0,.622-.6q.4-.769-.737-1.916a10.535,10.535,0,0,0-2.634-1.926,8.452,8.452,0,0,0-1.975-.751,7.189,7.189,0,0,0-2.041-.182,3.818,3.818,0,0,0-2.029.743A5.357,5.357,0,0,0,167.164,368.187Z" transform="translate(26.108 107.74)" fill="#fff"/>
    <path id="パス_90" data-name="パス 90" d="M155.958,215.378a1.5,1.5,0,0,0,.244-.306,2.96,2.96,0,0,0-.253-.92C155.958,214.571,155.96,214.978,155.958,215.378Z" transform="translate(23.508 30.082)" fill="#fff"/>
    <path id="パス_91" data-name="パス 91" d="M126.671,209.882l-.061.361.279-.178Z" transform="translate(8.451 27.89)" fill="#fff"/>
    <path id="パス_92" data-name="パス 92" d="M127.2,210.082l-.3-.256a.763.763,0,0,1-.113.085v-.18l-.663-.555a1.5,1.5,0,0,0-1.077-.347.835.835,0,0,1,.207.5l-.454.292.454.288c-.08.941.292,1,.306,1.745a.639.639,0,0,0-.732.381l2.117,1.776a11.013,11.013,0,0,1-.772-2.739C127,211.688,126.938,210.574,127.2,210.082Z" transform="translate(7.518 27.348)" fill="#fff"/>
    <path id="パス_93" data-name="パス 93" d="M154.956,215.52c.354-.091.257-1.058.3-1.742h.652l.168-.171-.831-.99C154.6,212.552,155.122,214.68,154.956,215.52Z" transform="translate(22.977 29.293)" fill="#fff"/>
    <path id="パス_94" data-name="パス 94" d="M153.509,377.108a1.47,1.47,0,0,0,.648.244v-.6a2.975,2.975,0,0,0,.764.307l3.429-5.081a4.744,4.744,0,0,1-.528-1.032,2.545,2.545,0,0,1,.938.424l2.4-3.565c-.091.15-.406.248-.291.233-1.226.148-2.129-1.439,0-.578.3.12.347.233.3.328l3.977-5.894a.651.651,0,0,0,.045-.675,1.683,1.683,0,0,0-1.333-.9.641.641,0,0,0-.608.3l-10.24,15.173a.675.675,0,0,0-.051.687A1.442,1.442,0,0,0,153.509,377.108Zm3.091-5.581c.584.224-.194.738-.608.583C155.408,371.887,156.187,371.37,156.6,371.527Zm-1.221,2.905v1.743h-1.223C154.069,374.646,154.582,374.272,155.379,374.432Z" transform="translate(21.941 105.094)" fill="#fff"/>
    <path id="パス_95" data-name="パス 95" d="M118.436,255.63h-.3l.147.561Z" transform="translate(4.105 51.368)" fill="#fff"/>
    <path id="パス_96" data-name="パス 96" d="M152,210.719a4.6,4.6,0,0,0-.306,1.74h.917l.3.776.309-.776c.649-.266.58.832.607,1.746a.608.608,0,0,0-.708.094l2.783,3.315a6.475,6.475,0,0,0-.244-1.085v-3.912l-3.55-4.231c-.555.884-.844,2.273-1.563,2.845l.4.481C151.2,211.586,151.445,210.99,152,210.719Z" transform="translate(20.738 27.123)" fill="#fff"/>
    <path id="パス_97" data-name="パス 97" d="M124.38,209.172l.163.554.247-.817A1.47,1.47,0,0,0,124.38,209.172Z" transform="translate(7.307 27.391)" fill="#fff"/>
    <path id="パス_98" data-name="パス 98" d="M150.544,207.786l.592.065-.612-.729Z" transform="translate(20.723 26.474)" fill="#fff"/>
    <path id="パス_99" data-name="パス 99" d="M133.734,218.183l-.2.128.26.218Z" transform="translate(12.004 32.15)" fill="#fff"/>
    <path id="パス_100" data-name="パス 100" d="M126.053,331.895v-.177h.611v.177h5.168a11.218,11.218,0,0,1,.325-1.338c.611.257.277.731.074,1.338h10.314a1.269,1.269,0,0,1-.017-.757h1.528a1.282,1.282,0,0,1-.015.757h5.733a.666.666,0,0,0-.53-.177l.156-.869-.46-.292v-1.879a27.644,27.644,0,0,1-4.691.732,4.526,4.526,0,0,0,.113.567h-1.525a2.972,2.972,0,0,0-.006-.513c-.278.008-.549.032-.832.032-.05.929-.714,1.525-.077,1.642-.351,1.786-.79-.369-.657-1.64h-3.453v-12.82a1.47,1.47,0,0,0-1.076-.064c-.117-1.493.4-1.784,1.076-1.777V294.525h2.616q5.774,0,9.1,3.486t5.286,11.658h1.851v-.757a1.47,1.47,0,0,1-.7.15c.059-.475.306-.584.306-1.162h.4v-6.358c-.342.4-1.183,1.041-1.313-.617.265-1.713.46,1.351,1.223.583.038-.039.064-.064.091-.091v-21.95c-.505.03-.457-1-.4-2.046h-1.236c-.088.407-.212.767-.312,1.158.006.1.012.192.026.275.26.1.281-.231.3-.584.74.365.16,2.936-.614,2.323a2.439,2.439,0,0,1-.142-.434,22.419,22.419,0,0,1-2.566,5.59,7,7,0,0,1,.272,1.82,4.713,4.713,0,0,1-.54-1.474c-.215.312-.449.6-.681.888h.3v1.164h-.61v-.764c-.12.141-.218.307-.34.443a11.131,11.131,0,0,1-8.609,3.868h-.162c-.166.4-.4.66-.657.521a4.767,4.767,0,0,1,.012-.521h-2.9v-5.325a.669.669,0,0,1-.469.033c-.521-.2.044-.628.469-.6v-27.77h2.745c-.1-.322-.236-.593-.468-.675h-.306l.159-.867-.466-.294a2.719,2.719,0,0,1,.248-.561h-7.869a6.6,6.6,0,0,1-.008,1.144c-.23-.56-.687-.687-.971-1.144H125.74c.074.247.154.478.313.561l-.15.875.455-.292v.578h.92l-.16.873.463.3c.009.558.374.445.613.576.035,1.044-.375,1.227-.309,2.323h.309l.148.873L128.8,262c.34,1.832.03,1.313,0,3.489q-1.977.277-1.832-3.489c-.537-1.1-1.708-1-1.828-2.9l.153-.872-.458.3c.021-1.895.265-1.749.1-2.89H123l-.15.855.154.867c-.354.21-.776,1.024-.307,1.168-.2,1.465-1.015-2.1-1.22.576-.583-.487-.822-2.516-.315-3.467H110.142v2.4h4.335a.346.346,0,0,1,.313,0h.519c.05-.363.036-.849.064-1.253.558-.006.829.534,1,1.253h.192v1.026a5.947,5.947,0,0,0,.637,2.367c-.08.881-.36.757-.637.508v6.561c.259-.136.643-.033.943-.1.215,1.581-.507,1.3-.943.9v29.3c.011,0,.015.011.026.011v1.159c-.009,0-.015,0-.026,0v14.693a2.229,2.229,0,0,1,.943,2.153h-.917a1.993,1.993,0,0,0-.026-1.335V329.5h-.489c.477.548.744,1.489,1.734,1.059a2.93,2.93,0,0,1-.172,1.338Zm29.3-45.494c-.16-4.612.1,2.843,0,0Zm-1.524,3.488c1.129.071.767.846.607,2.324C153.9,292.072,153.738,291.214,153.825,289.889Zm-.306,5.809h.61v1.162h-.61ZM152,288.726h.917c.033,1.044-.378,1.223-.307,2.324C152.065,290.91,151.909,290.052,152,288.726Zm-.919,1.162c.465.011.669,4.3-.3,3.488C150.555,291.6,151.3,291.664,151.077,289.889Zm-6.407,4.066h.917C146.03,295.649,144.221,295.649,144.67,293.955Zm-9.46,29.63-.458-.294-.153.878c-.257.1-.285-.232-.3-.584l.15-.872-.457.292c-.221-1.773.313-2.117.307-3.489C135.567,319.536,135.671,321.779,135.209,323.584Zm1.834,3.488c-.44-.132-.106-1.736-.616-1.745C136.774,323.46,137.3,325.887,137.043,327.072Zm-.616-23.822c.38.253.628.746.616,1.742C136.662,304.741,136.414,304.249,136.428,303.25Zm1.226-24.4c.035,1.04-.375,1.226-.309,2.32C136.809,281.36,136.8,277.922,137.653,278.853Zm-.61-22.079c.266,1.864-1.008.8-.922,2.323-.327-.147-.2-1.156-.605-1.161C135.558,256.662,136.282,256.686,137.043,256.774Zm-1.223,30.793c-.036-1.046.372-1.229.3-2.329C136.662,285.055,136.667,288.5,135.821,287.567Zm-.3,2.9c.244.306.492.6.911.581-.132.713-.386,1.191-.911,1.162Zm0,16.265c.631.5.318,4.045,0,4.65C134.582,310.312,135.862,308.625,135.517,306.735Zm-.307,10.459c.489-.16.425,3.135-.3,1.743C135.022,319.163,135.234,317.185,135.209,317.194Zm-1.22-2.324c.254-1.2.259-2.607-.307-1.164-.415-.177-.256-1.453-.3-2.321H134.6C133.621,312.88,135.9,314.67,133.99,314.87Zm0-16.849c-.705-.162-.7-1.551-.307-2.323C134.392,295.86,134.385,297.249,133.99,298.02Zm-1.226-7.551c.094-1.182.831-1.139.919-2.324C134.6,289.014,133.462,290.751,132.764,290.47Zm.306-22.657c.931.714-.327,2,0,3.483C132.032,270.069,132.959,269.613,133.07,267.813Zm0,24.981c-.371-.257-.625-.744-.607-1.743C132.835,291.3,133.088,291.794,133.07,292.794Zm-16.476-27.3c-.085-.941.291-1,.3-1.748.25.112.307.584.613.584C117.377,265.039,117.122,265.52,116.594,265.49Zm3.66,37.76c-.253-1.209-1.158-2.45-.608-3.486C120.18,300.3,120.324,301.578,120.255,303.25Zm-.3-8.713c-.277,1.015-.567,2.017-1.525,1.739C118.66,295.024,119.168,293.031,119.95,294.537Zm-1.218-4.067V289.3h.914c-.109.766-.539.917-.608,1.746C118.775,291.157,118.751,290.825,118.732,290.47Zm.914-2.324c-.581-.221.2-.738.608-.578C120.836,287.787,120.058,288.3,119.646,288.145Zm.3-3.489c-.982-1.368,1.077-2.345,0,0Zm.61,36.6c.1-.787.766-.481,1.223-.58C121.518,322.372,121.326,321.334,120.56,321.26Zm2.445-2.323c.041,2.562-.746-.056-1.527.578C121.426,318.259,122.559,319.253,123.006,318.937Zm0-12.785c-.127,2.518-1.776-.608,0,0Zm-1.832,6.393v-1.161c.256.109.287-.224.306-.584C122.069,310.571,121.927,313.449,121.173,312.546Zm-.613-30.209c.135-.716.392-1.192.919-1.164C121.346,281.887,121.087,282.367,120.56,282.336Zm1.527,48.8v-1.161c.495-.165.525.549.918.58C122.832,331.763,122.524,331.789,122.087,331.138Zm1.218-1.746c-.928-1.273.356-3.722,0,0Zm1.528-40.087c.042-1.807.69-.592,1.831-1.159C126.595,290.3,125.581,289.774,124.834,289.3Zm.915-5.806c-.13.713-.392,1.194-.915,1.158-.089-.937.288-1,.306-1.74C125.389,283.026,125.443,283.5,125.749,283.5Zm0-6.97c-.931-1.28.354-3.722,0,0Zm.61,42.409a4.248,4.248,0,0,1,.608,2.907C125.941,322.44,126.5,320.033,126.359,318.937Zm3.359-19.755V298.02c.256.107.286-.224.3-.58C130.617,297.209,130.466,300.088,129.718,299.183Zm.3-7.551c.807-.174,1,.81.917,2.323A2.6,2.6,0,0,1,130.022,291.632Zm1.22,40.086c-1.13-1.76.928-1.958,0,0Zm-.3-26.726a4.282,4.282,0,0,1,.611,2.908C130.755,307.151,130.587,306.7,130.939,304.992Zm.611-16.265c-.058.495.113.549.3.578.124,1.129-1.386.85-.911-.578Zm-.309-18.591c.086.937-.289,1-.3,1.743C130.349,272.109,130.493,269.232,131.242,270.135Zm-.608,3.485c-.581-.247-.555-1.655-1.528-1.161C129.347,271.125,131,271.894,130.634,273.62Zm-1.834-7.552h.613v1.161H128.8Zm0,55.776c-.583,1.218-.828,3.064-2.135,2.905-.351-1.829.481-1.415.614-2.327C128.141,325.054,127.361,321.159,128.8,321.844Zm-1.218-19.755c.462-1.681-.449-2.65.912-2.907C128.212,300.2,128.506,302.3,127.581,302.089Zm.613,4.063v1.165c-.655.274-.586-.832-.613-1.74C127.831,305.686,127.884,306.157,128.194,306.152Zm-.915-24.98c.634-.244.807.4,1.215.584C128.439,283.439,127.049,283.156,127.279,281.173Zm.3,2.326v1.158h-.614V283.5Zm-.3-17.43c.976-.507.415,1.913,1.215,1.745C128.141,269.364,126.879,267.86,127.279,266.068Zm-.92,1.745c-.652.268-.583-.831-.61-1.745C126.127,266.322,126.375,266.812,126.359,267.813Zm-1.831-.584.462.291.15-.87c.325,1.9,1.848,1.524,2.14,3.486l-.46.291-.154.87h-.306l-.558-.676-.051,1.259C125,271.058,123.861,268.925,124.528,267.229Zm-1.223,27.309c.481-2.745,1.513-.773,0,0Zm-.3-27.309c.826-.412-.222,2.74.607,2.323-.048.682-.558.493-.914.584A6.612,6.612,0,0,1,123.006,267.229Zm-1.527-.58c.215,1.776-.315,2.118-.306,3.486.232,1.487,1.97.13,1.832,2.324-.835.051-.614-.967-1.223,0v1.161l-.561-.291-.356.875c-.3-.02-.236-.714-.306-1.164h-.61l.156-.873-.46-.289c.35-2.388.207-3.807-.608-5.23C119.456,264.124,120.156,267.463,121.479,266.649Zm-1.528-1.743h-.608v-1.164h.608Zm-1.525-8.132c.257.1.289-.225.307-.583.537.141.695,1,.61,2.329-.245-.31-.5-.61-.917-.584Zm.613,25.562a3.611,3.611,0,0,1-.613-2.324A1.838,1.838,0,0,1,119.038,282.336Zm-.306,4.064c.784-2.268-.649,2.246-.61,2.326C117.619,287.528,118.545,286.938,118.732,286.4Zm-.919,34.28h1.832v2.9l-.455-.294-.153.878h-.613l.153-.878-.455.294v-1.162l.356-1.065-.664-.1Z" transform="translate(0 51.368)" fill="#fff"/>
    <path id="パス_101" data-name="パス 101" d="M272.722,357.809a.949.949,0,0,0-.286.566.708.708,0,0,0,.177.565l11.865,13.938a.678.678,0,0,0,.648.236,1.587,1.587,0,0,0,1.223-1.043.669.669,0,0,0-.129-.676l-5.19-6.1,2.385-2.029,8.3,3.411q.935.384,1.371.012a1.418,1.418,0,0,0,.468-.881,1.051,1.051,0,0,0-.189-.893.766.766,0,0,0-.331-.221l-8.029-3.214q2.56-3.255-.354-6.675a4.925,4.925,0,0,0-3.975-2.108,7.054,7.054,0,0,0-4.16,1.878Zm10.3-1.4q2.313,2.717-.549,5.154l-2.675,2.277-4.609-5.414,2.677-2.277Q280.723,353.718,283.018,356.414Z" transform="translate(83.285 101.179)" fill="#fff"/>
    <path id="パス_102" data-name="パス 102" d="M219.071,330.891a52.439,52.439,0,0,1-4.359,7.445c-.652.982-1.342,1.926-2.032,2.871-.292.436-.254.69.254.906a2.916,2.916,0,0,0,1.671.074,21.635,21.635,0,0,1,4.285-.545c.908-.038,1.816-.073,2.724-.145a3.467,3.467,0,0,0,1.781-.583c.254-.216.834-.362.616-.834-.18-.365-.69-.218-1.089-.183-.508.073-.981.183-1.489.219-1.162.107-2.361.216-3.523.289l-2.507.219c.189-.283.319-.508.446-.728-.053-.262.024-.517.354-.539,1.108-1.637,2.236-3.278,3.3-4.981a20.737,20.737,0,0,0,2.288-4.576,7.092,7.092,0,0,0,.363-1.743,1.107,1.107,0,0,0-1.053-1.38,2.543,2.543,0,0,0-.908,0,7.269,7.269,0,0,0-4.358,2.8,1.633,1.633,0,0,0-.218.436.648.648,0,0,0,.944.036,3.7,3.7,0,0,0,.545-.508,10.558,10.558,0,0,1,2.506-1.708c.182-.071.363-.107.654-.216a2.114,2.114,0,0,1-.109.617A22.955,22.955,0,0,1,219.071,330.891Zm-.593,3.312c1.05,1.5-1.569,1.4,0,0Z" transform="translate(52.527 87.807)" fill="#fff"/>
    <path id="パス_103" data-name="パス 103" d="M311.15,258.115a2.944,2.944,0,0,1,.539-2.485H295.513v.561h-.61v-.561h-4.45c-.156.359-.381.583-.734.561-.029-.213-.039-.392-.047-.561h-3.051c.313,1.306-.117,3.725-1.174,2.89-.145-1.247.433-1.111.914-1.168V255.63h-.911a.673.673,0,0,1-.5,0h-7.914v2.4h6.428V278.21a.254.254,0,0,0,.148.059,1.52,1.52,0,0,1-.148.48v39.494a.656.656,0,0,1,.758-.471c.056,1.155-.212,1.71-.758,1.727v10h-6.428v2.4H288.5v-.757h.611v.757h42.2a2.261,2.261,0,0,1,.224-.757,1.982,1.982,0,0,1,.309.757h5.015l.54-14.7h-.071a1.659,1.659,0,0,1,.082-.3l.1-2.748c-.557.846-.761,2.361-2.011,1.884-.61-1.4.533-2.815-.307-4.069.49-.9,1.636.288,2.355,1.211l.185-5.03h-2.179a32.31,32.31,0,0,1-3.65,8.41,1.521,1.521,0,0,0,.548.061c.206,1.947-.514,2.122-1.223,2.323V317.56a29.533,29.533,0,0,1-3.3,4.046c-.008.235-.023.495-.053.816a1.677,1.677,0,0,1-.245-.5q-.822.819-1.716,1.581A25.392,25.392,0,0,1,308.85,329.5h-4.14V294.525h2.615q5.772,0,9.1,3.486a17.406,17.406,0,0,1,3.2,5.184v-1.106h.608v1.161h-.586a40.613,40.613,0,0,1,2.059,6.419h1.852V296.811a.971.971,0,0,1,0-1.168V277.42h-1.634a22.235,22.235,0,0,1-4.9,10.4,11.122,11.122,0,0,1-8.605,3.868h-3.7V258.027h3.813C309.433,258.027,310.3,258.062,311.15,258.115Zm-22.958,30.031c.636.688-.141,3.561-1.221,2.905C286.991,289.347,287.9,289.339,288.192,288.145Zm-1.528-8.717c-.412-.179-.253-1.451-.3-2.323C287.068,277.269,287.063,278.658,286.664,279.428Zm-.912-4.645c.245.307.5.607.912.578-.08,1.2-1.135.552-1.217,1.745C284.726,276.94,285.8,275.554,285.751,274.782Zm.61,6.974c-.135.71-.39,1.192-.914,1.159-.088-.937.286-1,.3-1.743C286,281.279,286.054,281.758,286.361,281.757Zm-.914,29.044c.085.941-.289,1-.307,1.745C284.545,312.776,284.7,309.9,285.447,310.8Zm-.307,15.687c-1.273-.135.347-2.156-.611-2.9C284.936,321.938,285.335,325.076,285.14,326.488Zm.914,1.743h-.607v-1.159h.607Zm1.226-9.294a15.717,15.717,0,0,1-.918-3.486c.244.306.493.605.918.581Zm0-8.136c-.616-.268-.25-1.09.912-.578C289.052,310.6,287.495,310.9,287.28,310.8Zm1.217,8.136h-.611v-1.165h.611Zm.3-44.155h-.607V273.62h.607Zm46.384,52.866c-.931-1.274.354-3.718,0,0ZM331.218,323c1.126,1.758-.928,1.957,0,0Zm-2.746,2.323c.455.113,1.223,3.8,0,3.482-.055-.487.121-.545.307-.578-.138-.864-.389.232-.917,0C327.632,326.441,328.912,327.525,328.472,325.327Zm-.3,5.811c-.932-1.274.354-3.722,0,0Zm-15.566,0c-.923,2.146-1.026-1.766,0,0Zm-9.459-72.618c-.2,2.66-1.849-.472,0,0ZM300.4,268.973c.918-.586.54,1.3.608,2.323C300.469,271.155,300.314,270.3,300.4,268.973Zm-2.439-10.453c-.929,2.141-1.027-1.769,0,0Zm-8.239,29.625h.607V289.3h-.607Zm.607,27.305a2.909,2.909,0,0,1-.3-2.905A2.908,2.908,0,0,1,290.326,315.451Zm2.439-49.383c-.589.23-.446-2.644.309-1.742C293.163,265.266,292.785,265.327,292.765,266.068Zm1.834-2.9h.613v1.161H294.6Zm.613,5.808v-1.745c.247.312.493.607.912.584C296.27,269.053,295.69,268.917,295.212,268.973Zm1.826,52.871c.652-.274.586.832.613,1.74C297.273,323.33,297.02,322.838,297.038,321.844ZM297.651,262h-.613v-1.742h.613Zm.616,44.152c-1.132-1.757.92-1.955,0,0Zm-.309-40.084c-.077-1.69.572-2,.914-2.9.637.169-.454,1.568.611,1.74C299.223,265.773,298.5,265.746,297.958,266.068Zm1.525-2.326c.787-2,.737,2.989,0,0Zm1.215,50.547h-.607v-1.743h.607Zm0-6.971c-.855-.589.092-2.468,0-3.486C301.454,302.615,300.478,305.907,300.7,307.317Zm.617-31.371c-.085,6.434-1.357,1.963,0,0Zm1.524,51.7c-.931-1.87.365-4.347,0,0Zm-.611-60.42c.083-1.038-.286-1.191-.307-.58-.415-.179-.251-1.454-.306-2.323.3.012.239.708.306,1.164.546.071.645-.716,1.221-.584C303.233,266.425,303.035,267.406,302.229,267.229Zm21.058,35.44c-.932-1.274.35-3.721,0,0Zm-2.441-7.554c.3.018.236.714.306,1.161a1.613,1.613,0,0,0,.61-1.161c.805,1.024-.9,2.117-.915,3.489-.831.412.218-2.74-.613-2.329C320.308,295.648,320.844,295.885,320.845,295.115Z" transform="translate(85.648 51.368)" fill="#fff"/>
    <path id="パス_104" data-name="パス 104" d="M209.825,269.773a1.592,1.592,0,0,1-.607-1.158l.148-.875-.458.294v-1.164l.156-.581-.156-.578a1.338,1.338,0,0,0,.089-.126L205.185,255.2h-.545c0,.213,0,.425,0,.633h-1.22a1.423,1.423,0,0,1-.014-.633h-3.464c-.062.018-.123.038-.186.054,0-.02.008-.035.011-.054h-3.152c-.176.888-.46,1.577-1.009,1.752l-3.656,9.846a.422.422,0,0,1,.18.074v1.745c-.219.153-.4-.409-.557-.8l-.988,2.662a3.351,3.351,0,0,0-.286,1.627c-.085.017-.159-.091-.218-.266l-21.607,58.212H163.35v2.07h16.669v-2.07h-8.173l6.581-18.458c-.546-.145-.749-.926-1.254-1.144.455-1.353.747-.887,1.528-.583v.959l1.534-4.308H183.1a13.622,13.622,0,0,1,.144-2.4h-2.028l7.224-20.138a.467.467,0,0,1,.157-.436l2.858-7.971,3.2,9.645a1.171,1.171,0,0,1,.213-.339c.244.112.306.589.61.582-.067.549-.31.705-.528.646l5.982,18.01h-6.075l-.142.807.46.291a3.817,3.817,0,0,1-.25,1.3h6.879l4.841,14.322c.041.024.074.062.126.067v.307l2.987,8.837h-5.788a3.843,3.843,0,0,1,.056.732,1.307,1.307,0,0,1-.489-.732h-1.515v2.07h1.693v-.757h.611v.757h3.14c-.147-.684.041-2.126.521-.177a1.836,1.836,0,0,1-.082.177h8.9a11.4,11.4,0,0,0,.032-1.917c.866-.484.793.817,1.527.58a2.606,2.606,0,0,1-.168,1.338h9.936v-.757h.614v.757h8.905v-2.07h-5.013l-1.548-4.22c-.26.3-.947-.672-.825,1.468-.6,1.227-.18-2.544.478-2.414l-1.132-3.084a2.418,2.418,0,0,1-.548-1.495L210.1,268.6C210,268.973,209.937,269.419,209.825,269.773Zm-39.974,59.841c-.58-.221.2-.741.607-.583C171.037,329.258,170.267,329.774,169.851,329.614Zm7.628-17.429c-.171,1.208-.474,1.233-.914.583v-1.161C176.808,311.917,177.058,312.213,177.479,312.185Zm1.527-4.646c-.77-.586.241-2.571.919-2.326C180.673,305.766,178.706,305.937,179.005,307.539Zm.919-2.9v-1.164c.259.109.283-.224.3-.581C180.821,302.664,180.673,305.537,179.924,304.635Zm5.49-13.944a2.625,2.625,0,0,1-.919-2.324C185.3,288.192,185.5,289.171,185.414,290.691Zm5.8-18.591c-.354-.1-.257-1.059-.3-1.743.433.051.86.1.911-.584C192.827,270.643,190.8,270.459,191.211,272.1Zm14.34-13.358c.7.449.3,3.591-.61,2.9C204.5,259.446,205.781,260.527,205.551,258.742Zm-3.355-1.168c.7-.176.339,1.68.918,1.745-.062.472-.31.58-.31,1.162H202.2Zm-.309,29.63c.327-.54.1-2.143.917-1.743Q203.082,287.725,201.888,287.2Zm0-13.361c-.168,1.681-.471-.891-.911-.58C201.275,271.336,201.579,273.91,201.888,273.842Zm-4.57-6.392c-.132.912-.964.5-.616,2.323C195.622,269,196.564,266.034,197.318,267.45Zm0,17.427v1.745a1.211,1.211,0,0,0-1.229-.58C196.171,285.023,196.62,284.717,197.318,284.878Zm-.922,4.648c-.9-.495.4-1.457,0-2.9a1.193,1.193,0,0,0,1.223.581C197.843,289.184,196.5,288.163,196.4,289.526Zm2.138-27.885c-.935-1.273.351-3.718,0,0Zm.307,31.374v-1.162c.257.107.286-.225.3-.581C199.741,291.044,199.594,293.917,198.842,293.016Zm.3-20.334c.651-.271.581.828.607,1.745C199.377,274.17,199.128,273.68,199.146,272.681Zm.3-15.108v-1.161c.259.107.291-.226.3-.583C200.347,255.6,200.2,258.477,199.45,257.574Zm.613,19.753a6.419,6.419,0,0,1,.3-2.323c.543.142.7,1,.614,2.323Zm.914,16.849h.614v1.161h-.614Zm.614,6.97c-1.043-.617.843-.178.3-1.742.776-.3,1.186-.988,1.227,1.164C202.156,299.923,202.307,300.29,201.591,301.146Zm1.524-16.268v-2.32c.362.657.549,1.661,1.521,1.162C204.593,284.99,203.87,284.967,203.115,284.878Zm1.826,7.557a3.589,3.589,0,0,1,.61,2.324h-.915A6.63,6.63,0,0,1,204.941,292.435Zm.61,16.849c.086,1.161-1.4-4.534-.306-3.485C205.24,307.164,205.774,307.506,205.551,309.284Zm-.61-20.917V287.2c.26.109.291-.225.3-.581C205.839,286.391,205.694,289.272,204.941,288.367Zm1.218-22.655c1.062-.468,1.176.865,2.14.578v1.745l-.457-.294-.151.875h-.306l-.307-.292-.3.292c-.079-.731-.607-.586-.616,0C205.447,268.467,205.989,266.064,206.16,265.712Zm-.3,31.37c.121-1.111.107-2.5.914-2.323C206.86,296.278,206.662,297.256,205.861,297.082Zm.607-4.066c-.35-1.826.477-1.41.61-2.324C207.482,290.405,207.211,293.574,206.468,293.016Zm.61-4.648c1.127,1.761-.923,1.955,0,0Zm.613-5.23h.608v1.74h-.608Zm.3-.58c.118.225.33-1.751.307-1.745C208.783,280.651,208.729,283.952,207.992,282.558Zm.611,33.7a3.635,3.635,0,0,1-.611-2.326C208.532,314.069,208.69,314.93,208.6,316.254Zm-.611-39.5c.577.06.213,1.916.915,1.74C208.6,280.007,207.048,277.822,207.992,276.75Zm2.138,4.644c-.649.272-.583-.828-.611-1.745.25.113.306.589.611.584Zm1.829,29.628c-1.021.6-.475-1.8-.61-2.9.26-.106.291.227.309.578.307-.375.313-1.335.914-1.161C212.447,309.6,211.236,308.688,211.96,311.023Zm-.61,15.687c-.722-.159.35-1.551.309-2.32C212.591,324.958,211.309,325.933,211.35,326.71Zm0-44.731c.837.012.725,2.739.309,3.482C210.982,285.391,211.527,283,211.35,281.978Zm1.223,20.333c.378.256.623.738.61,1.742C212.806,303.8,212.554,303.311,212.572,302.311Zm1.828,23.238c-.631-.324-.649-.9-.3-1.743h.613A4.534,4.534,0,0,0,214.4,325.549Zm1.226-2.323c-.3-.018-.238-.71-.306-1.161-.46,1.061-1.106,1.776-2.138,1.74,1.365-1.757-.931-4.379.915-5.23l.15,1.453.761-.292h.617l-.156,1.068.458.677A4.408,4.408,0,0,0,215.626,323.226Zm.909-6.973v-2.9c.97-.291.116,2.88,1.226,2.321C217.852,318.042,217.12,315.984,216.536,316.254Zm5.192,15.686h-.613v-1.161h.613Zm-.914-3.486c.094-.788.761-.478,1.217-.583C221.73,328.812,221.219,329.21,220.813,328.453Zm-.306-4.647a6.769,6.769,0,0,1,1.522,2.9C221.018,326.7,220.514,325.729,220.508,323.806Zm4.571-11.039c-.221,1.035-.551.083-.912,0C224.392,311.734,224.723,312.682,225.079,312.767Zm-1.524,4.648c.539-.185.546,3.255-.3,2.321A5.635,5.635,0,0,0,223.555,317.416Zm-.917,2.905c0,1.366.531,1.708.307,3.485-.428-.048-.864-.092-.915.584C221.508,323.909,221.833,320.185,222.638,320.321Zm-.911-1.745c-1.127-1.76.926-1.954,0,0ZM220.2,304.053h.912C221.567,305.749,219.75,305.749,220.2,304.053Zm.611,14.524c-.077.633-.608.4-.611,1.161C219.9,318.616,220.358,314.439,220.813,318.576Zm-1.223-8.714c-.288,1.242-1.224-1.1-.915-2.905h.915C220.309,308.662,219,309.114,219.591,309.862Zm-.3-13.365c.409-1.692-.9,3.771,0,0Zm-.3,4.648c-.042,1.483-.059,2.992-.92,2.907C218.07,302.52,217.779,300.415,218.984,301.146Zm-1.223-6.387a2.182,2.182,0,0,1,.3,2.323c-.232-.912-.97-.87-.915-2.323C217.421,295.116,217.695,295.459,217.761,294.759Zm-.307-5.233c-.372-.25-.626-.74-.613-1.737C217.219,288.037,217.471,288.529,217.454,289.526Zm-1.218,5.233c-.935-1.273.353-3.722,0,0Zm.605,1.739c-.045,1.442-1.032.174-1.215,0C215.668,295.055,216.658,296.333,216.841,296.5Zm-1.832-9.294a7.743,7.743,0,0,1,.617,3.488C214.945,290.28,214.609,287.968,215.009,287.2Zm-.3-4.645c.051,1.267-.256,1.849-.917,1.742C213.732,283.035,214.043,282.452,214.711,282.558Zm-.31,12.779c-.339.9-.99,1.211-.912,2.905C212.6,297.251,213.536,294.91,214.4,295.337Zm-2.441-8.714c.622-1.861.348-2.047.613-4.064C213.529,283.449,213.259,286.854,211.96,286.622Zm-.914-9.872c.548-.076.642.71,1.22.576-.076,1.021-.527,1.327-1.22,1.164Zm0,15.1c.8.772.586,2.577.3,4.066C210.667,295.668,211.229,293.058,211.046,291.853Zm0,37.76c-.633-1.888,1.509-2.805,0,0Z" transform="translate(27.306 51.146)" fill="#fff"/>
    <path id="パス_105" data-name="パス 105" d="M208.607,336.988a3.472,3.472,0,0,1,.546.038,2.074,2.074,0,0,0,.725-.327,3.883,3.883,0,0,0,.69-1.017c.254-.51.074-.764-.508-.872a1.7,1.7,0,0,0-2,1.342A.647.647,0,0,0,208.607,336.988Z" transform="translate(50.244 91.987)" fill="#fff"/>
    <path id="パス_106" data-name="パス 106" d="M200.4,337.387a20.7,20.7,0,0,0-1.017,2.722c-.327,1.126.038,1.563,1.236,1.6a2.132,2.132,0,0,0,.944-.147,6.622,6.622,0,0,0,1.634-.725c.57-.357,1.117-.744,1.646-1.153.064-.257.16-.356.236-.191.2-.157.4-.3.586-.472.835-.69,1.6-1.525,2.4-2.326.728-.761,1.453-1.562,2.181-2.361.216-.182.471-.4.363-.8-.508-.183-.8.107-1.126.4-1.963,1.634-4,3.268-5.994,4.9-.581.472-1.2.835-1.816,1.271-.073,0-.107-.035-.18-.073a8.39,8.39,0,0,0,.289-.872l.009-.02a1.245,1.245,0,0,1-.327-.227.993.993,0,0,0,.651-.483c1.276-2.889,2.922-5.644,4.461-8.424a.827.827,0,0,1,.455-.354c-.026-.012-.045-.036-.077-.036.056-.679.56-.487.92-.581a2.506,2.506,0,0,0-.153.445,1.368,1.368,0,0,0,.708-.418,9.163,9.163,0,0,1-1.09-.325c.194-.31.375-.6.548-.885a1.576,1.576,0,0,1-.625-.557c.094-.787.763-.483,1.217-.584.006.05,0,.077.006.124a3.629,3.629,0,0,0,.707-1.368c-.581-.144-.581-.144-.835.11a2.988,2.988,0,0,0-.617.581c-.546.69-1.055,1.344-1.525,2.034-.69.87-.69.835-1.781,1.053-.581.109-1.161.218-1.742.291a2.919,2.919,0,0,0-.608.3c.008.036.011.077.015.12.926.393,1.763-.115,2.663.092-.147.216-.254.436-.4.617A41.739,41.739,0,0,0,200.4,337.387Z" transform="translate(45.739 87.16)" fill="#fff"/>
    <path id="パス_107" data-name="パス 107" d="M242.534,218.1l-5.177,5.177c.23.811-.946,1.778-1.068,2.9-.693-.459-.58-.979-.274-1.562l-1.04,1.041c-.327.327-.764.416-.979.2s-.124-.652.2-.979l1.9-1.9a2.546,2.546,0,0,1-.07-.856l-2.292,2.292c-.327.327-.764.416-.979.2s-.124-.651.2-.979l7.56-7.558-.463-.463-7.558,7.558c-.327.328-.764.418-.979.2s-.124-.652.2-.978l1.224-1.224c-.017-.445.008-.968-.017-1.394.334.074.507.425.557.852l3.211-3.21a3.533,3.533,0,0,1-.08-1.144c-2.9,2.423-7.71,6.523-8.716,7.947-2.066,2.927-.767,4.205-1.826,5.991.083.737-.808,1.808-1.235,1.415-.572.543-1.324,1.221-2.215,2a2.552,2.552,0,0,1-.068.666c-.144-.008-.2-.179-.233-.4q-.633.552-1.333,1.153c-1.938-1.665-3.545-3.09-4.4-3.948-2.358-2.356-.168-4.77-2.583-8.188a20.538,20.538,0,0,0-8.136-6.364,10.066,10.066,0,0,0-1.318-.475v.215h.611c-.374,1.884.99.445.61,2.324-.82-1.952-3.353.617-3.919-2.669a2.262,2.262,0,0,0-.828.433l-.015.015.032.188.462-.291c.228,1.1.908.4.306,1.743l-.458-.286.153.867c-.333.148-.21,1.159-.611,1.165l-.357-.875-.151.08a7.281,7.281,0,0,0,.348,1.459l.16-.082v.5l.048.126c.354.25.452.982.869,1.114v-.578l.454.286-.153-.869c.3-.02.241-.711.307-1.161.569-.555,1.02,1.737,1.217,0,.9.495-.393,1.46,0,2.9l-.454-.292-.154.87h-.3v1.094a19.415,19.415,0,0,0,4.567,5.007,4.359,4.359,0,0,1,.012-.87,6.415,6.415,0,0,1,.982,1.5c.183.1.365.183.542.256v-.59c.549-.068.645.714,1.221.581a2.271,2.271,0,0,1-.071.363,8.429,8.429,0,0,0,.987.142v-.505h.608v.542c1.472.065,2.775,0,4.06,1.286.244.242.546.564.872.917-.286-.416-.032-1.286,1.176-.419-.481.672-.867.7-1.086.516.787.856,1.775,1.981,2.884,3.27-.11.1-.216.186-.33.281h.058c.091,1.53-.639,1.5-1.226,1.743l-.115-.66c-4.229,3.557-9.01,7.471-11.453,9.468-.406.333-.766.646-1.1.952a.539.539,0,0,1,.162.114c.251,1.643-.43,1.506-.306,2.905-.348.071-.508-1.817-.259-2.65-2.874,2.727-2.978,4.388-1.663,5.7l0,0c1.515,1.515,3.489,1.15,7.023-3.17,2.013-2.46,5.966-7.289,9.544-11.54v-.546h.46c.239-.283.478-.566.713-.841,1.324,1.563,2.737,3.252,4.114,4.91.162-.018.192-.286.207-.583.316-.126.421.637.336,1.238,2.409,2.905,4.645,5.64,6,7.3,3.535,4.322,5.51,4.686,7.024,3.17l0,0c1.516-1.516,1.152-3.489-3.17-7.026-2.553-2.088-7.657-6.266-12.018-9.946a2.32,2.32,0,0,0-.008,1.2c-.587-.239-.241-2.256-1.22-1.743v-1.164c.242-.309.493-.6.914-.58a3.515,3.515,0,0,0-.048.731c1.323-1.525,2.439-2.769,3.16-3.489,2.356-2.358,3.182-.1,6.6-2.512,2.073-1.463,10.113-11.067,10.113-11.067Zm-33.709,1.109c.162.835-1.188,1.415-.3,1.74C207.907,223.411,207.333,217.7,208.825,219.209Zm.306,5.228c-.247-.312-.5-.608-.915-.584.277-1.015.567-2.017,1.53-1.743C210.119,223.992,208.755,222.558,209.131,224.437ZM213.1,228.5c1.126,1.766-.931,1.961,0,0Zm1.829-.581h-.61v-1.159h.61Zm-8.854,25.564c-.4.773-1.238-2.622.307-2.9C205.2,251.1,206.458,252.755,206.074,253.484Zm2.751-1.746c.25-1.2-.009.31,0,0Zm.92-.58c-.623-.935-1.03-4.573.3-4.064C209.638,248.213,210.27,249.432,209.745,251.159Zm.6-3.485c-.166-1.288.583-.823.614-1.742.356.092.257,1.058.3,1.742Zm26.855,1.743c-.2,2.662-1.845-.465,0,0ZM226.52,230.826c-.18-2.091.934-1.714.917-3.485C228.254,228.373,227.437,231.173,226.52,230.826Zm3.668-5.809c-.4-.207-.483-1.024-.917-1.164.048-.678.557-.489.917-.583Z" transform="translate(46.311 30.836)" fill="#fff"/>
    <path id="パス_108" data-name="パス 108" d="M229.112,216.441l-4.987,4.989a3.207,3.207,0,0,1,.241.684l5.208-5.21Z" transform="translate(58.495 31.256)" fill="#fff"/>
    <path id="パス_109" data-name="パス 109" d="M226.382,214.835s-.651.53-1.627,1.341c.014.334-.018.754-.045,1.162l2.087-2.087Z" transform="translate(58.795 30.432)" fill="#fff"/>
    <path id="パス_110" data-name="パス 110" d="M155.833,182.967a1.466,1.466,0,0,0-.162.144.519.519,0,0,1-.157.139,1.494,1.494,0,0,0-.235,1.786l12.408,21.49v-.667h.608v1.164h-.322l5.932,10.272a1.513,1.513,0,1,0,2.621-1.513l-12.646-21.9c-.1.188-.256.185-.469-.219.041.074.089-.1.136-.357l-5.647-9.78A1.513,1.513,0,0,0,155.833,182.967Zm15.515,28.7a3.584,3.584,0,0,1-.611-2.324C171.274,209.482,171.433,210.349,171.348,211.669Zm-6.716-15.106c.885.106.737,2.763-.3,2.324A6.451,6.451,0,0,1,164.633,196.563Z" transform="translate(23.063 13.974)" fill="#fff"/>
    <path id="パス_111" data-name="パス 111" d="M207.073,378.335c.185-.54.608-.605.617-1.475a5.168,5.168,0,0,0-1.577.835,5.766,5.766,0,0,0-1.843,4.413l-.457,8.185a5.767,5.767,0,0,0,1.339,4.591,5.166,5.166,0,0,0,1.082.8.8.8,0,0,1,.228-.5c.2.085.233.477.315.782a6.7,6.7,0,0,0,1.655.467,3.184,3.184,0,0,0,.468-1.25c.433.133.375.832.135,1.327.1.008.189.03.294.036a7.215,7.215,0,0,0,2.719-.336,6.215,6.215,0,0,1-.558-2.1,3.952,3.952,0,0,1-2.046.375q-3.564-.2-3.346-4.061l.457-8.186q.213-3.861,3.778-3.662a3.524,3.524,0,0,1,2.6,1.114,4.011,4.011,0,0,1,.776,2.949l-.272,4.894c.578-.065.289,1.512.351,2.429a1.814,1.814,0,0,1-.437-.887l-.1,1.749a4,4,0,0,1-1.1,2.843,2.782,2.782,0,0,1-.307.222,7.982,7.982,0,0,1,.384,2.258,5.282,5.282,0,0,0,1.453-.785,5.747,5.747,0,0,0,1.855-4.411l.457-8.185a5.747,5.747,0,0,0-1.354-4.591,6.192,6.192,0,0,0-4.189-1.666,7.361,7.361,0,0,0-2.538.269C208.3,377.388,207.809,379.137,207.073,378.335Zm7.021,12.783c.575.222-.2.737-.613.58C212.9,391.474,213.672,390.958,214.095,391.119Z" transform="translate(48.062 113.392)" fill="#fff"/>
    <path id="パス_112" data-name="パス 112" d="M199.536,331.081c-.725.145-.725.145-1.126.472-.543.436-1.09.872-1.6,1.307-1.778,1.416-3.486,2.869-5.266,4.251a17.777,17.777,0,0,1-2.252,1.307,1.3,1.3,0,0,1-1.127.182c-.362-1.164.183-2.217.583-3.269a6.207,6.207,0,0,0,4.649-3.523c.218-.436.4-.946.036-1.345a1.29,1.29,0,0,0-1.416-.291,5.707,5.707,0,0,0-.835.327,8.9,8.9,0,0,0-1.344.944,13.841,13.841,0,0,0-3.087,3.85,6.131,6.131,0,0,0-.763,2.253,1.629,1.629,0,0,0,1.487,2.07,4.8,4.8,0,0,0,2.035-.147,9.168,9.168,0,0,0,3.85-2.25c2-1.888,4-3.815,5.992-5.74A1.979,1.979,0,0,0,199.536,331.081Zm-9.249,1.705v-.934a1.017,1.017,0,0,1,.372.468,5.922,5.922,0,0,1,1.831-1.53,3.521,3.521,0,0,1-1.368,2.548,1.824,1.824,0,0,0-.221.838h-.614v-.219a4.092,4.092,0,0,1-.884.43A5.489,5.489,0,0,1,190.288,332.787Z" transform="translate(38.906 89.578)" fill="#fff"/>
    <path id="パス_113" data-name="パス 113" d="M237.707,325.723c.109-.436-.073-.652-.545-.69a1.186,1.186,0,0,0-.835.292c-.617.471-1.273.906-1.925,1.307-.581.4-1.236.725-1.852,1.126-.4.254-.8.508-1.2.8-.107.11-.145.292-.254.436a1.113,1.113,0,0,0,1.164-.035l2.07-1.091c.216-.144.436-.254.8-.471l-1.708,4.176a56.479,56.479,0,0,0-3.3,12.422c-.073.507.182.726.69.654a.756.756,0,0,0,.543-.545c.583-1.707,1.236-3.379,1.781-5.086,1.271-4.213,2.651-8.425,4.322-12.493A5.114,5.114,0,0,0,237.707,325.723Z" transform="translate(61.563 86.982)" fill="#fff"/>
    <path id="パス_114" data-name="パス 114" d="M145.552,263.807V262h.608v2.326h-.132a45.475,45.475,0,0,1,6.791,11.6,6.211,6.211,0,0,1,.058-1.141c1.082-.9.183,1.975.911,1.746a3.344,3.344,0,0,1-.142.673h1.692l-1.089-21.572H139.655c-.086.43-.166.831-.206,1.144a11.012,11.012,0,0,1-.281-1.144H135.8c.038.3.117.516.284.561-.076.631-.605.392-.608,1.161l-.457-.286.148.87c-.322-.088-.507.106-.581.495a22.6,22.6,0,0,1,5.625,1.557,19.909,19.909,0,0,1-.766-2.052c.325-1.978.1,1.612.917.584v1.534a15.153,15.153,0,0,1,3.423,2.058A17.8,17.8,0,0,1,145.552,263.807Zm7.325,2.261h.6v1.161h-.6Zm-.61,4.067c-.091,1.372-.817-.664-1.224-.584.533-1.185-.227-1.139.3-2.323.242.312.5.607.92.584C152.17,268.17,151.5,270.045,152.267,270.135Zm-.614-13.361a5.7,5.7,0,0,0-.306,2.323C150.81,259.28,150.8,255.843,151.653,256.774Zm-4.27,4.063c.911-.381-.3-1.235,0-2.317.741,1.465.649-1.229,1.825-.584v3.483l-.454.291-.154.876c-.248-.112-.3-.586-.61-.586l-.151-.581-.154.581a3.62,3.62,0,0,1-.608-2.324C147.37,259.694,147.31,260.39,147.383,260.837Zm-.914-2.317c.144,1.813-.268,2.589-1.226,2.317C145.105,259.021,145.509,258.246,146.469,258.52Z" transform="translate(12.546 51.368)" fill="#fff"/>
    <path id="パス_115" data-name="パス 115" d="M198.7,341.218a15.521,15.521,0,0,0,.129-2.589,1.447,1.447,0,0,1,.617-1.38c.908-.728,1.852-1.418,2.76-2.143l3.486-2.87c.218-.216.545-.436.472-.835-.4-.254-.726-.109-1.09.145-1.925,1.38-3.85,2.76-5.811,4.1-.182.147-.365.218-.654.4a17.143,17.143,0,0,1-.4-4.468,3.668,3.668,0,0,1,1.091-2.324,3.6,3.6,0,0,0,.363-.363,1.227,1.227,0,0,0-1.2.254,3.858,3.858,0,0,0-1.778,2.8,8.689,8.689,0,0,0-.11,1.708c.038,1.126.074,2.25.182,3.412a1.45,1.45,0,0,1-.436,1.2c-.616.763-1.271,1.525-1.851,2.326a13.405,13.405,0,0,0-2.215,4.794,12.9,12.9,0,0,0-.182,2.07c.035.763.436,1.09,1.2,1.2a3.4,3.4,0,0,0,2.613-.763,5.409,5.409,0,0,0,1.634-2.215,17.639,17.639,0,0,0,.645-1.816c-.008-.112-.015-.222-.029-.321-.43-.05-.866-.1-.917.578-.449-.254.126-.743,0-1.745.514.05.85.436,1.041,1.1a15.852,15.852,0,0,0,.351-1.575C198.5,341.568,198.482,341.3,198.7,341.218Zm-3.922-.006c1.065,2.161-.829,2.949,0,0Zm.238,5.043a2.445,2.445,0,0,1-1.2,1.453,2.058,2.058,0,0,1,0-1.235,13.134,13.134,0,0,1,1.743-4.394,6.452,6.452,0,0,1,.835-1.2c.038.145.109.218.074.289A22.049,22.049,0,0,1,195.016,346.256Z" transform="translate(42.046 88.932)" fill="#fff"/>
    <path id="パス_116" data-name="パス 116" d="M122.18,259.555l-.558-.292-.361.874.562.291Z" transform="translate(5.706 53.232)" fill="#fff"/>
    <path id="パス_117" data-name="パス 117" d="M193.543,169.446c-.071.752-.209,1.027-.347,1.011a1.329,1.329,0,0,0-.006.219l4.089,23.187a4.969,4.969,0,0,1,.286-1.221c.427-.088.574,2.753.029,3.01l1.147,6.5c.042-.793.362-1.061.956-.8-.3.507-.13,1.931-.785,1.773l.746,4.231a1.492,1.492,0,0,0,.327.669.515.515,0,0,1,.633-.287,6.315,6.315,0,0,0-.207.651,1.486,1.486,0,0,0,.737.218,1.58,1.58,0,0,0,.265-.023,1.514,1.514,0,0,0,1.227-1.754l-1.672-9.482a1.451,1.451,0,0,0-.042.518,1.147,1.147,0,0,1-.138-1.54l-4.615-26.18a1.491,1.491,0,0,0-2.628-.7Zm2.8,17.384c.115.222.322-1.749.3-1.74C197.135,184.926,197.079,188.226,196.347,186.829Zm1.524-2.9c.915-.589.545,1.291.611,2.321C197.945,186.111,197.785,185.248,197.871,183.93Zm-.306,6.971c-.286-4.417,1.486-1.955,0,0Zm-.611-14.527c-.6-.4-.811-1.551-.915-2.908C197,173.2,197.017,174.71,196.954,176.375Zm-.607.578v1.164c-.657.274-.586-.829-.613-1.742C195.982,176.487,196.035,176.957,196.347,176.953Zm-1.528-4.647v1.161c-.649.274-.583-.828-.611-1.74C194.457,171.834,194.513,172.306,194.819,172.306Z" transform="translate(42.617 6.858)" fill="#fff"/>
    <path id="パス_118" data-name="パス 118" d="M234.672,336.9c.363.4.363.436.8.546.1.026.191.041.286.065a1.472,1.472,0,0,1,.113-.528c-.179-.042-.359-.085-.545-.118C235.108,336.831,234.89,336.687,234.672,336.9Z" transform="translate(63.907 93.016)" fill="#fff"/>
    <path id="パス_119" data-name="パス 119" d="M136.856,314.085h7.055c-.077-.858-.05-.566,0,0h11.14c-.023-.055-.044-.107-.067-.177.055-.471.307-.58.307-1.161.371.162.407.891.286,1.338h.89l.546-14.869c-.5-.767-.708.11-1.419.168.089-1.185.825-1.142.917-2.324a2.4,2.4,0,0,1,.53,1.412l.3-8.138H155.16a30.388,30.388,0,0,1-9.641,15.362c-.275.236-.567.44-.85.663h.859c.44,1.675-1.318,1.689-.923.048a24.21,24.21,0,0,1-8.183,4.181,5.539,5.539,0,0,1,.558,3.32A2.114,2.114,0,0,1,136.856,314.085Zm18.435-20.51c.575.219-.2.737-.614.578C154.1,293.932,154.874,293.415,155.291,293.575ZM151.937,308.1h.911c.091.937-.287,1-.309,1.739-.244-.107-.3-.577-.6-.577Zm-.307-5.811c.53,2.211-.887-3.7,0,0Zm-3.051,4.65c.245.107.3.578.605.578-.054.469-.3.577-.3,1.161-.244-.107-.3-.584-.614-.578C148.331,307.628,148.579,307.518,148.579,306.94Zm-.92,2.323V311c-.546.076-.642-.7-1.217-.578C146.513,309.4,146.966,309.1,147.659,309.262Zm-5.186,2.32h.611v1.746h-.611Zm-.306-1.161c.584.222-.2.745-.608.578C140.978,310.782,141.751,310.269,142.168,310.422Z" transform="translate(13.487 69.177)" fill="#fff"/>
    <path id="パス_120" data-name="パス 120" d="M243.212,337.85a4.838,4.838,0,0,0,.216-1.052,2.56,2.56,0,0,0-2.288-3.016,6.332,6.332,0,0,0-2.032-.073,3.92,3.92,0,0,1-.655,0c.147-.291.219-.545.327-.726.726-1.307,1.454-2.578,2.144-3.886a.935.935,0,0,1,.69-.472c1.233-.328,2.432-.69,3.668-1.018,1.307-.325,2.615-.616,3.922-.944.4-.107.835-.107,1.126-.508a.826.826,0,0,0-.835-.253c-1.126.144-2.252.291-3.379.472A40.317,40.317,0,0,0,241,327.68c-.655.219-1.345.436-1.453,1.273,0,.073-.074.108-.074.145l-2.615,4.14a8.507,8.507,0,0,0-.436.763.461.461,0,0,0,.291.654,2.069,2.069,0,0,0,1.235.109,13.814,13.814,0,0,1,1.707-.254,1.486,1.486,0,0,1,1.672,1.418,3.5,3.5,0,0,1-.145,1.487,10.758,10.758,0,0,1-3.488,4.83,2.245,2.245,0,0,1-1.752.48,1.029,1.029,0,0,1,.091.551,5.408,5.408,0,0,0,4.494-1.428A11.12,11.12,0,0,0,243.212,337.85Z" transform="translate(64.557 87.422)" fill="#fff"/>
    <path id="パス_121" data-name="パス 121" d="M260.411,330.964c.468.12.636.8.622,1.82a25.673,25.673,0,0,0,8.608-3.238c.153-.48.266-.458.372-.219a24,24,0,0,0,3.39-2.628,2.438,2.438,0,0,1,.132-.381,1.909,1.909,0,0,1,.091.186c.092-.086.192-.16.283-.248q7.354-7.134,7.356-18.9a24.944,24.944,0,0,0-2.937-12.408h-.213v-.366A15.159,15.159,0,0,0,275,290.738a34.889,34.889,0,0,0-4.031-3.161,25.9,25.9,0,0,0-4.9-2.4q-3-1.144-5.013-1.8t-8.444-2.4c-1.595-.431-3.066-.929-4.475-1.457.215.711-.012,2.256.988,1.469.294,2.1-1.2.811-1.831,1.165.157-.793-.28-2.716.206-2.874a34.221,34.221,0,0,1-5.727-2.825,8.863,8.863,0,0,1-4.412-7.952,10.261,10.261,0,0,1,3.632-8.214c.02-.5.177-.971.5-.8a.442.442,0,0,1,.171.277,14.779,14.779,0,0,1,7.481-2.541c.151-.631.581-.48.781-.068.5-.029,1.011-.045,1.539-.045a15.451,15.451,0,0,1,7.422,1.935,6.01,6.01,0,0,0,0-1.3,1.185,1.185,0,0,0,1.217.584,10.678,10.678,0,0,1-.563,1.074,22.269,22.269,0,0,1,4.341,3.429c.177.177.353.371.53.554a.376.376,0,0,1,.271.172c0,.045,0,.068,0,.111a56.684,56.684,0,0,1,5.166,6.351,1.587,1.587,0,0,1,.633.508c-.026.107-.059.182-.088.275,1.509,2.2,2.99,4.6,4.441,7.227h1.743l-.294-8.487a2.9,2.9,0,0,1-.033-.941l-.436-12.579H274.8a4.853,4.853,0,0,1-.35,1.722,4.456,4.456,0,0,1-.283-1.032,2.885,2.885,0,0,1-2.276,1.489,22.971,22.971,0,0,1-4.155-.755v.3h-.608v-.446c-.9-.221-1.9-.481-3.025-.785-.115-.03-.227-.051-.342-.082,0,.054.006.1,0,.153a.584.584,0,0,1-.691-.316q-1.759-.436-3.477-.737c.11,1.589-1.279.324-1.012,2.214a2.852,2.852,0,0,1-.932-2.53c-.395-.053-.782-.083-1.174-.126.132,1.059-.012,2.689-.643,2.078a3.822,3.822,0,0,1,.275-2.117c-1.365-.133-2.719-.225-4.046-.225q-11.989,0-18.9,6.973a24.459,24.459,0,0,0-4.319,5.824h.446c-.605.4.188,3.461-.919,2.907.082-.327.631-1.9.157-2.244a22.975,22.975,0,0,0-2.286,10.182,32.974,32.974,0,0,0,.61,6.434c.176-1.046.785-1.283,1.209-.43.086,1.31-.433,1.475-.95,1.648a21.593,21.593,0,0,0,1.268,3.659c.407.051.826.163.605.5a.807.807,0,0,1-.26.259,17.226,17.226,0,0,0,2.692,3.955c-.469-.982-.505-3.134.619-2.471v2.905a.287.287,0,0,1-.139.024c.357.36.71.725,1.1,1.053.452.38.914.735,1.377,1.085.173-.844.289-1.789,1.017-1.584a15.06,15.06,0,0,0-.4,2.041,31.189,31.189,0,0,0,5.145,3.034,87.577,87.577,0,0,0,12.092,4.086,56.738,56.738,0,0,1,8.494,3.051v-.009a.216.216,0,0,1,.218.107,28.334,28.334,0,0,1,4.146,2.353,10.427,10.427,0,0,1,4.523,9.1,12.259,12.259,0,0,1-.9,4.815c.82,1.406-.434,1.717-.275.6a9.052,9.052,0,0,1-1.568,2.2c.448-.1.5.554.875.583-.17,1.206-.475,1.226-.917.577v-1.114a10,10,0,0,1-1.409,1.22,16.382,16.382,0,0,1-9.642,2.942q-8.28,0-15.743-7.082a58.928,58.928,0,0,1-8.916-10.819c-.1.592-.522,1.224-.9.911-.15-1.1.381-.928.554-1.43-.2-.309-.4-.61-.589-.923a.678.678,0,0,1-.269.032,4.568,4.568,0,0,1,.014-.489c-.354-.595-.682-1.215-1.02-1.825-.463-.018-.837-.418-.835-1.5-.092-.179-.2-.342-.291-.522h-1.854l1.09,25.93h1.527A9.283,9.283,0,0,1,229.923,331c.071-.38.3-.587.428-.428a1.761,1.761,0,0,1,1.121-.454q.872,0,8.879,1.634a72.071,72.071,0,0,0,14.219,1.634,34.482,34.482,0,0,0,6.168-.545A5.52,5.52,0,0,1,260.411,330.964Zm16.177-29.05c-1-1.4.849-2.777,0,0Zm-2.442,1.162h.61v1.745h-.61Zm-.306,4.648h.611v1.161h-.611Zm0,8.133h.611v1.164h-.611Zm0,4.064c.675.074.132,2.468.306,3.489C273.474,323.337,274.019,320.946,273.84,319.922Zm-.92,3.489h.614v1.745h-.614Zm-.908-27.307h.61v1.162h-.61Zm2.743-37.178c0,1.152-.835.734-.61,2.317C273.4,260.88,273.984,258.312,274.756,258.927Zm-6.715,2.317c.092-2.162.763,1.713,0,1.164C267.536,263.773,268.07,262.2,268.04,261.243Zm-1.832,0c1.044,1.643-1.108,1.133-1.522.583C264.784,259.9,266.018,263.356,266.208,261.243Zm-4.269-4.646h.613c.144,1.236-.434,1.108-.921,1.161C261.691,257.289,261.94,257.18,261.939,256.6Zm-8.238-1.161h.915a4.593,4.593,0,0,0-.307,1.743c-.247-.112-.3-.587-.608-.583Zm-3.353,0h.911C251.711,257.129,249.892,257.129,250.348,255.437ZM239.66,259.5h.613v1.162h-.613Zm-10.066,22.076c-.071.837-.909.2-.917,1.164-.345.039.238-2.984.917-2.908C229.658,280.83,229.073,281.343,229.595,281.579Zm7.015-10.455c-.375-.256-.623-.744-.605-1.745C236.654,269.107,236.581,270.209,236.61,271.124Zm-1.527-1.745c.675.073.133,2.463.309,3.486C234.717,272.794,235.263,270.4,235.083,269.38Zm-2.438,1.745c-.259,2.191,1.015,2.727.3,4.064C232.524,274.155,230.776,271.453,232.645,271.124Zm-1.525-6.392c.649-.275.577.828.607,1.742C231.354,266.219,231.1,265.727,231.12,264.733Zm1.22,24.978h-.613v-1.159h.613Zm3.052-.578c-.027,1.5-1.3.608-.914,2.905h-1.224c.442-.85.454-2.252-.608-1.743.9-2.845,1.448-3.163,1.832-6.39,1.133,1.27-.177,3.739,1.218,4.069l-.462.291Zm-.309-5.811a2.618,2.618,0,0,1-.911-2.324c.956-.64.8-.272,1.524.581C235.5,282.172,235,282.18,235.083,283.322Zm1.527-2.9c-.861,2.233-.852-3.783.307-2.907C236.926,278.383,235.783,279.89,236.61,280.418Zm.614-5.808h-.614v-1.164h.614Zm1.522,10.452c.109-.761.537-.909.611-1.74.359.094.257,1.061.3,1.74ZM246.678,281c-.372-.254-.623-.743-.605-1.739C246.727,278.984,246.657,280.087,246.678,281Zm-6.1,5.809c.425-.732.02-3.063,1.221-2.323Q242.011,287.213,240.579,286.807Zm.613,7.554c-.584-.218.191-.738.608-.578C242.381,294,241.6,294.518,241.192,294.361Zm2.132,4.066c1.126,2.554-.84,2.209,0,0Zm.917-2.323c-1.1.067-1.766-1.369,0-.583C245.031,295.877,244.08,296.113,244.241,296.1Zm.914-14.525-.457-.291-.15.875c-.475.648-.639,1.885-1.527,1.742-.566-.823-.817-3.12.3-3.486l.457.292.154-.876c.814,1.6,1.073-.425,1.829-.575C245.852,280.577,245.693,281.44,245.155,281.579Zm.61,19.174c.365-.866.265-2.6,1.223-2.326C246.624,299.292,246.727,301.027,245.764,300.753Zm.309-8.714c.543.074.643-.713,1.218-.581q-.086,1.9.917,1.743C248.186,296.5,246.1,293.9,246.073,292.038Zm2.441-6.393h-.92V283.9c.5-.163.53.551.92.58Zm3.66,14.525c-.16-4.614.1,2.845,0,0Zm1.221,4.65v-1.164c.26.109.291-.224.306-.581C254.291,302.848,254.149,305.722,253.4,304.82Zm2.743-19.758V283.9c.26.1.292-.227.309-.583C257.041,283.092,256.891,285.97,256.139,285.062Zm.309,6.976a6.739,6.739,0,0,1,.3-2.905c.831-.419-.219,2.742.613,2.324C257.313,292.137,256.8,291.95,256.448,292.038Zm3.048,5.228c-.69-.159-1.145.141-1.214,1.161C257.365,297.51,259.68,293.638,259.5,297.266Zm.309-8.714.15-.578-.15-.586c.283-.617,1.126-.182.915-1.743.608.775.682,2.58.911,4.066C261.1,289.181,260.107,289.516,259.8,288.552Zm1.22,7.552c-.127,2.518-1.772-.613,0,0Zm.607-4.066c-.531-.319.625-2.247.614-3.486.852-.26-.238,3.167.61,2.905C262.988,293.088,261.717,290,261.63,292.038Zm2.137-5.231c1.135,1.761-.923,1.96,0,0Zm3.362,23.822c-.663.1-.141-2.061-.309-2.905C267.485,307.626,266.963,309.783,267.129,310.629Zm-2.137,18.586c.26.11.286-.219.306-.578.592-.228.443,2.647-.306,1.746Zm-32.957-6.965h-.614v-1.164h.614Z" transform="translate(59.414 50.961)" fill="#fff"/>
    <path id="パス_122" data-name="パス 122" d="M257.634,175.413c-.2,1.277-.44,1.129-.717.658l-.811,2.233v.012l-.006,0-11.591,31.845a1.5,1.5,0,0,0,.424,1.645,3.22,3.22,0,0,0-.118-.375c.067-1.009.36,0,.633.675a1.489,1.489,0,0,0,1.905-.909l3.3-9.061a8.083,8.083,0,0,1-.038-2.323c.409-.12.508.345.545.932L252.523,197l-.079-.085.088.056.222-.61,0-.027.012.008,7.33-20.142a1.509,1.509,0,0,0-2.825-1.061C257.4,175.3,257.527,175.415,257.634,175.413Zm-11.293,34.858h-.61v-1.742h.61Zm10.371-27.885c-.658.1-.133-2.061-.3-2.905A2.9,2.9,0,0,1,256.713,182.386Z" transform="translate(68.909 9.561)" fill="#fff"/>
    <path id="パス_123" data-name="パス 123" d="M216.465,169.705l0-.015v-1.076a1.492,1.492,0,0,0-1.142-1.439,4.28,4.28,0,0,1,.829,2.53c-.38.817-1.607.033-1.215,2.323-1.282.5-.67-2.6-1.224-3.483l.46-.292-.144-.807a1.484,1.484,0,0,0-.59,1.168v25.647a1.5,1.5,0,0,0,.274-.156l-.153.872.153.875a2.183,2.183,0,0,1-.274,1.173v.607c.424.13.625.684.578,1.7l-.15.873.459-.288c.061.471.3.577.3,1.159l-.455.292.153.872c-.5.124-.649.915-.887,1.542v2.082a1.513,1.513,0,1,0,3.026,0V169.707Zm-1.832,13.363h1.223v2.905l-.454.29.15.872c-.109.908-.537-.511-.61.578a5.127,5.127,0,0,1-.611-1.74h.3v-.583C214.927,184.309,213.717,183.451,214.632,183.068Zm.918,16.849c-.247.4-.835.9-.918,0l.151-.876-.454.291c.027-.82.048-1.643-.309-1.737-.216-1.581,1.444.415,1.226-1.167.437.132.1,1.734.608,1.746l.076,1.014Zm0-27.89v-1.161c.493-.163.527.548.914.58C216.3,172.657,215.987,172.678,215.551,172.028Z" transform="translate(53.013 5.974)" fill="#fff"/>
    <path id="パス_124" data-name="パス 124" d="M247.811,255.242c-.186-.029-.375-.071-.561-.1a5.1,5.1,0,0,1,.083.713C247.6,255.853,247.705,255.548,247.811,255.242Z" transform="translate(70.362 51.119)" fill="#fff"/>
    <path id="パス_125" data-name="パス 125" d="M272.137,193.659c.085.937-.288,1-.3,1.745-.263.1-.381-.4-.366-.92L266.5,203.1c-.06,1.077-.62,1.82-.767,3.347-.292-.153-.415-.626-.63-.928l-1.533,2.656c.345.136.307,1,.33,1.757a1.629,1.629,0,0,1-.584-1.316l-2.238,3.877a1.957,1.957,0,0,1-.231.922,2.666,2.666,0,0,1-.138-.284l-1.533,2.656a1.514,1.514,0,0,0,2.622,1.513l.642-1.114c-.465-.3-.9-.651-.675.716-.416-.179-.254-1.451-.3-2.323.313.587.909.645,1.56.6l2.542-4.4a2.892,2.892,0,0,1-.443-1.425,1.545,1.545,0,0,1,.714.956l5.936-10.284a5.916,5.916,0,0,1-.244-2.874c.634-.522.088,3.958.613,1.743a.157.157,0,0,1,.228.1l5.735-9.933c.088-.861-.466-1.946.141-2.945a2.432,2.432,0,0,1,.495,1.843l1.683-2.913a1.513,1.513,0,1,0-2.621-1.513l-5.785,10.019A.676.676,0,0,1,272.137,193.659Zm4.27-6.971c.764.235.021,2.252-.61,1.74C275.626,187.14,276.375,187.6,276.407,186.688Zm-3.66,8.13c.9.493-.185,1.873,0,2.908C272.034,197.577,272.571,195.172,272.747,194.818Z" transform="translate(76.376 13.974)" fill="#fff"/>
    <path id="パス_126" data-name="パス 126" d="M231.067,326.615a1.616,1.616,0,0,0-2.179-1.015,3.359,3.359,0,0,0-1.307.761,11.949,11.949,0,0,0-2.07,2.616,32.008,32.008,0,0,0-3.331,7.869c.082.386.168.76.4.852-.061.474-.309.581-.309,1.165h-.483a7,7,0,0,0,.34,3.19A2.248,2.248,0,0,0,225,343.576a3.629,3.629,0,0,0,1.707-1.126,16.978,16.978,0,0,0,2.215-3.16c.186-.334.353-.678.524-1.018-.34-.03-.428-.543-.766-.575l.156-.867-.126-.079c-.027.059-.05.12-.079.179a21.507,21.507,0,0,1-2.8,4.394c-.054.059-.112.116-.166.175a1.41,1.41,0,0,0-.041.268.158.158,0,0,1-.177-.039,6.711,6.711,0,0,1-.925.832,1.536,1.536,0,0,1-.4-1.055,9.816,9.816,0,0,1,.073-3.85,30.387,30.387,0,0,1,4.1-10.132,4.457,4.457,0,0,1,1.235-1.38.987.987,0,0,1,.617.763,7.992,7.992,0,0,1,.327,4.794c-.059.209-.123.418-.185.627a9.957,9.957,0,0,1,.518,2.468l-.462.292.153.852c.446-1.117.834-2.256,1.174-3.4a15.867,15.867,0,0,0,.545-4.723,3.4,3.4,0,0,0-.073-.507l-.761.109A7.751,7.751,0,0,0,231.067,326.615Z" transform="translate(57.272 87.215)" fill="#fff"/>
    <path id="パス_127" data-name="パス 127" d="M175,174.2a5.653,5.653,0,0,0,.316,2.361l-.46.291.154.872c-.363-.357-.678.451-.909.626l1.689,4.642a.515.515,0,0,0,.136-.035c-.024.07-.047.142-.07.215l.77,2.118c.324-.875,1.471-.265,1.438,1.147-.454-.912-.764-.269-1.1-.222l5.862,16.106a2.657,2.657,0,0,0,1.032-.2c-.008.564-.368.448-.605.581a4.386,4.386,0,0,1,.3,1.61l2.5,6.87a1.514,1.514,0,0,0,1.422,1,1.469,1.469,0,0,0,.516-.092,1.512,1.512,0,0,0,.9-1.938l-4.6-12.628a1.867,1.867,0,0,1-.442-1.208h0l-1.22-3.353v.445h-.613v-1.158h.353L178.287,181c-.127.826-.822,1.708-1.445,1.369-.3-2.025.853-1.279,1.162-2.149l-1.848-5.075A1.492,1.492,0,0,0,175,174.2Zm4.9,14.563c1.12,2.55-.844,2.208,0,0Zm-2.444-8.717c-.639.337-.87,1.444-1.831,1.167V178.3C176.549,178.278,177.629,177.964,177.452,180.043Z" transform="translate(32.823 9.578)" fill="#fff"/>
    <path id="パス_128" data-name="パス 128" d="M147.559,202.9c-.154.642-.03,1.813-.463,1.922-.46.015-1.369-2.38-1.224,0,.073.837.912.2.917,1.161a.8.8,0,0,0-.191.481l4.467,5.325c.351-.1.256-1.058.3-1.739l.457-.289-.151-.867c.289.036.454-.163.629-.344Z" transform="translate(18.328 24.307)" fill="#fff"/>
    <path id="パス_129" data-name="パス 129" d="M171.017,163.094c-.558,2.1.051,1.716.3,3.491-.35-.1-.54.127-.611.583h-.256l1.652,4.54a1.513,1.513,0,1,0,2.843-1.033l-2.819-7.748-.011-.018c.291.941.107,2.784.424,3.677-1.221.537-1.065-3.02-.631-4.014a1.463,1.463,0,0,0-2.5.133C170.616,162.329,169.353,164.158,171.017,163.094Zm2.131,3.491c-.047.675.07,1.032.309,1.165C172.84,170.562,171.347,166.57,173.148,166.585Z" transform="translate(30.414 3.284)" fill="#fff"/>
    <path id="パス_130" data-name="パス 130" d="M227.373,332.959c.079-.183.165-.363.239-.548C227.449,332.434,227.4,332.673,227.373,332.959Z" transform="translate(60.162 90.771)" fill="#fff"/>
    <path id="パス_131" data-name="パス 131" d="M269.931,366.056c.011-.054.027-.1.038-.148l-4.305-3.715q-.629-.552-1.6.061t-.754,1.41l4.9,18.3a.891.891,0,0,0,.071.215.788.788,0,0,0,.734.342,1.736,1.736,0,0,0,.928-.26.761.761,0,0,0,.421-.89l-1.124-4.039,6.1-3.831,3.16,2.781a.755.755,0,0,0,.965,0,1.794,1.794,0,0,0,.67-.752.782.782,0,0,0,.041-.781.456.456,0,0,0-.051-.058.328.328,0,0,1-.067-.079l-9.881-8.527A.728.728,0,0,0,269.931,366.056Zm-1.226,9.361L265.833,365.1l8.02,7.082Z" transform="translate(78.582 105.92)" fill="#fff"/>
    <path id="パス_132" data-name="パス 132" d="M243.545,392.748a.705.705,0,0,0-.271-.425l-2.845-2.126a11.867,11.867,0,0,0,.36-5.894,1.4,1.4,0,0,0-.366-.819.905.905,0,0,0-.787-.135,1.15,1.15,0,0,0-.708.321.882.882,0,0,0-.127.657A11.763,11.763,0,0,1,238.78,389l-3.875-2.933a3.113,3.113,0,0,0-.021.649c-.207.073-.336-.395-.366-.943l-1.873-1.418c-.645-.49-1.115-.861-1.442-1.13a.652.652,0,0,1-.412-.39,9.076,9.076,0,0,1-.775-.9,3.861,3.861,0,0,1-.766-1.643,2.916,2.916,0,0,1,.409-2.27,2.885,2.885,0,0,1,1.963-1.167,3.156,3.156,0,0,1,1.475.051c.11.032.2.073.294.109a5.374,5.374,0,0,1-.337-1.92c.834-.53.6.971.605,2.02a2.2,2.2,0,0,1,.468.283q.359.295.722.548a.873.873,0,0,0,.633.2,1.068,1.068,0,0,0,.856-1.232q-.15-.84-1.609-1.569a5.505,5.505,0,0,0-3.5-.363,5.414,5.414,0,0,0-3.394,1.9,4.342,4.342,0,0,0-.837,3.668,5.069,5.069,0,0,0,.974,2.256,12.16,12.16,0,0,0,1.935,1.919,6.959,6.959,0,0,0-2.146,2.582,5.372,5.372,0,0,0-.431,3.406,5.614,5.614,0,0,0,2.447,3.8,6.338,6.338,0,0,0,4.874.861c.086-.015.157-.051.242-.07,0-.157,0-.315-.012-.457.118.051.186.2.228.4q.356-.084.69-.2c0-.068,0-.138-.006-.2a.341.341,0,0,1,.151.16,6.877,6.877,0,0,0,1.074-.511v-.813h.6v.468a6.783,6.783,0,0,0,1.979-2.268l2.421,1.8a.865.865,0,0,0,.645.192,1.082,1.082,0,0,0,.655-.428A.888.888,0,0,0,243.545,392.748Zm-14.459-13.581h-.61v-1.159h.61Zm5.5,14.124c-.067.012-.127.011-.192.02-.206.611-.816,1.285-1.338.964a2.785,2.785,0,0,1,.225-.906,3.911,3.911,0,0,1-2.07-.645,3.83,3.83,0,0,1-1.657-2.589,3.582,3.582,0,0,1,.127-1.834,4.7,4.7,0,0,1,.7-1.366,7.88,7.88,0,0,1,1.043-1.058l.406.3c0-.014.008-.018.009-.033.017.024.023.045.038.068l4.591,3.388a5.226,5.226,0,0,1,.256-1.136c.558.171.573.9.356,1.589l.908.67A4.266,4.266,0,0,1,234.582,393.291Zm5.8-2.5c.306.374.313,1.333.914,1.161C241.17,393.393,239.892,392.393,240.378,390.79Z" transform="translate(59.922 112.56)" fill="#fff"/>
    <path id="パス_133" data-name="パス 133" d="M300.8,185.2a1.513,1.513,0,0,0-2.132.188l-5.3,6.315a1.513,1.513,0,0,0,2.318,1.944l5.3-6.315A1.512,1.512,0,0,0,300.8,185.2Z" transform="translate(93.85 15.043)" fill="#fff"/>
    <path id="パス_134" data-name="パス 134" d="M256.5,336.652a2.145,2.145,0,1,0-2.146-2.144A2.145,2.145,0,0,0,256.5,336.652Z" transform="translate(74.008 90.745)" fill="#fff"/>
    <path id="パス_135" data-name="パス 135" d="M291.717,226.659l-7.7,6.461a1.513,1.513,0,1,0,1.944,2.318l11.418-9.582a.632.632,0,0,0-.9.325c-.312-1.952.95-.906,1.531-1.161,0,.117,0,.215,0,.307l11.285-9.471a5.946,5.946,0,0,0,0-1.3c.316-.047.362.421.342,1.009l1.233-1.035c.082-.386.206-.692.262-1.129.165-.059.28.23.334.628L314.5,211.5a1.513,1.513,0,1,0-1.946-2.318l-4.652,3.9a2.912,2.912,0,0,1-.129,2.064c-.431.065-.354-.835-.3-1.705l-7.923,6.647c-.006,1-.041,2.138-.014,2.613-.577-.067-.213-1.923-.919-1.746a.968.968,0,0,1,.032-.11l-6.349,5.326C292.7,227.154,291.68,227.877,291.717,226.659Z" transform="translate(88.952 27.347)" fill="#fff"/>
    <path id="パス_136" data-name="パス 136" d="M299.721,258.134q7.611.527,11.869,3.978,5.009,4.086,9.588,15.089h1.961L322.05,255.63h-1.9c.056.493.006,1.186.038,1.722-.548-.123-.664-.981-.505-1.722H300.355C300.549,257.238,299.7,256.854,299.721,258.134Zm18.025,4.452c-1.129-1.763.928-1.963,0,0Z" transform="translate(97.289 51.368)" fill="#fff"/>
    <path id="パス_137" data-name="パス 137" d="M256.453,389.09a1.154,1.154,0,0,0,.779-.091l4.862-2.138a5.539,5.539,0,0,0,3.042-2.825,5.6,5.6,0,0,0-.386-4.53l-.2-.449a5.439,5.439,0,0,0-1.866-2.483,4.331,4.331,0,0,0-2.566-.626,3.422,3.422,0,0,0,.9-2.168,6.011,6.011,0,0,0-.584-2.852q-1.062-2.42-2.827-2.743a7.115,7.115,0,0,0-4.11.705l-4.288,1.885a1.24,1.24,0,0,0-.572.49.689.689,0,0,0-.045.675l7.368,16.756A.7.7,0,0,0,256.453,389.09Zm7.614-7.033c2.466,1.483-2.022-1.006,0,0ZM251.2,372.164l3.043-1.338q3.066-1.346,4.24,1.319a3.245,3.245,0,0,1,.253,2.538,3.462,3.462,0,0,1-1.963,1.695l-3.117,1.372Zm6.591,5.85a3.082,3.082,0,0,1,4.626,1.864l.188.424q1.5,3.416-1.69,4.819l-3.365,1.48-3.125-7.106Z" transform="translate(71.02 109.088)" fill="#fff"/>
    <path id="パス_138" data-name="パス 138" d="M274.325,221.306l-1.849,2.2a1.5,1.5,0,0,0,.684,2.4,8.4,8.4,0,0,1,.157-1.064,10.4,10.4,0,0,1,.265,1.136c.017,0,.035.009.051.009a1.5,1.5,0,0,0,.745-.222,6.93,6.93,0,0,1,.162-.923,5.7,5.7,0,0,1,.186.657c.021-.021.048-.029.068-.051l23.943-28.534a1.513,1.513,0,1,0-2.318-1.946L274.411,221.2A.332.332,0,0,1,274.325,221.306Zm23.1-25.5c1.127,1.763-.928,1.955,0,0ZM278.506,218.46c.487-.16.431,3.14-.307,1.746C278.32,220.426,278.527,218.451,278.506,218.46Z" transform="translate(83.126 19.963)" fill="#fff"/>
    <path id="パス_139" data-name="パス 139" d="M258.6,163.659l-1.156,3.176c.2.251.446.374.761.091a1.371,1.371,0,0,1-1.212,1.145l-1.12,3.076a1.512,1.512,0,0,0,.9,1.938,1.492,1.492,0,0,0,.519.092,1.512,1.512,0,0,0,1.421-1l.856-2.353h-.147v-1.745h.611v.471l.985-2.709a.937.937,0,0,1-.372-.085c.324-.543.092-2.141.911-1.742.006.057.008.106.014.162a1.481,1.481,0,0,0-2.642-1.176c.236.2.413.519.8.431C259.7,164.779,258.871,164.659,258.6,163.659Z" transform="translate(74.741 3.526)" fill="#fff"/>
    <path id="パス_140" data-name="パス 140" d="M226.9,333.109l.039.98c.147-.3.288-.605.424-.909Z" transform="translate(59.919 91.129)" fill="#fff"/>
    <path id="パス_141" data-name="パス 141" d="M135.108,218.658l-.758-.3.153,1.457h-.381l8.607,7.221-.038-.932.353-1.064c.248.11.306.584.611.584a13.865,13.865,0,0,0,.2-1.589l-3.318-2.784.067.3c-.062.472-.307.581-.307,1.161l-.462-.288-.455.288c-.679.322-.433-1.1-.915-1.161l.153-.292.151-.286.9-.042,0-.41-4.565-3.83Z" transform="translate(12.306 31.388)" fill="#fff"/>
    <path id="パス_142" data-name="パス 142" d="M110.142,306.843h.054c-.014-1.044-.206-2.432.6-1.917a5.046,5.046,0,0,1,.3,1.917h5.827c.011-1.425-1.422-.116-.962-2.4h-3.992a3.36,3.36,0,0,1-.265.48c-.142-.038-.2-.236-.236-.48h-1.332Z" transform="translate(0 76.419)" fill="#fff"/>
    <path id="パス_143" data-name="パス 143" d="M216.469,163.894V155.65c0-.041-.02-.076-.023-.115-.829.366-1.348-.4-1.814.39l-.455-.289.153.873h-.613l-.274-.673v3.511l.274.065c.006.566.371.448.613.58l.1,1.553.817.192c.3.014.236.708.3,1.161l-.463-.292-.147.876h-.309l-.3-.292-.309.292V162.9a.669.669,0,0,0-.578.274v.723a1.513,1.513,0,1,0,3.026,0Zm-1.223-3.9h-.614v-1.159l.242-1.12-.545-.626.454.291-.151-.867h1.223a7.52,7.52,0,0,1,0,3.482Z" transform="translate(53.013 0)" fill="#fff"/>
    <path id="パス_144" data-name="パス 144" d="M131.376,184.984a1.514,1.514,0,0,0-.186,2.132l5.155,6.144a5.852,5.852,0,0,1,.448-.558c.015-.011,0-.583,0-.583.59.188-.038.965-.365,1.238l.062.076a1.513,1.513,0,0,0,2.32-1.944l-5.3-6.316A1.514,1.514,0,0,0,131.376,184.984Z" transform="translate(10.62 14.931)" fill="#fff"/>
    <path id="パス_145" data-name="パス 145" d="M232.329,203.1a4.53,4.53,0,0,0,.307-1.743,2.788,2.788,0,0,0,.28.312l5.464-30.992a1.514,1.514,0,0,0-2.981-.527l-2.211,12.541c.192.536.039.838-.154.876l-4.1,23.267a1.514,1.514,0,0,0,1.227,1.754,1.581,1.581,0,0,0,.265.023,1.514,1.514,0,0,0,1.489-1.25l.689-3.907A1.078,1.078,0,0,1,232.329,203.1Zm1.527-16.27c-.932-1.274.353-3.719,0,0Zm-3.971,19.758c-.263-1.87,1.008-.8.919-2.327C231.408,202.836,230.7,207.047,229.885,206.587Z" transform="translate(60.95 6.858)" fill="#fff"/>
    <path id="パス_146" data-name="パス 146" d="M197.755,394.54q.275.974.834,1.088a1.413,1.413,0,0,0,.982-.174,1.051,1.051,0,0,0,.587-.7.776.776,0,0,0-.029-.395l-2.417-8.306q4.14.014,5.042-4.39a8.323,8.323,0,0,0,.114-.9c-.669.033-.462-1.6-1.321-1.2-.041-1.062.757-.523,1.274-.521a3.819,3.819,0,0,0-.856-1.807,7.044,7.044,0,0,0-4.042-2.12l-4.885-1a.937.937,0,0,0-.622.123.723.723,0,0,0-.336.489l-3.669,17.931a.675.675,0,0,0,.213.655,1.587,1.587,0,0,0,1.574.322.676.676,0,0,0,.454-.519l.684-3.343c-.443,1.014-1.173,2.33-1.687,1.412-.029-1.752.873-1.737,1.755-1.743l.853-4.172,3.069.628Zm-3.689-18.1,3.441.7q3.682.754,2.973,4.222-.715,3.5-4.4,2.743l-3.442-.705Z" transform="translate(40.159 112.167)" fill="#fff"/>
    <path id="パス_147" data-name="パス 147" d="M132.99,216.214c-.545-.162-.754-.964-.944-1.807l-5.1-4.275a27.454,27.454,0,0,1,.26,4.169l.7.583a10.99,10.99,0,0,1-.1-3.9c.415.57.4,1.961.917,2.324.319,1.6-.613.814-.664,1.7l1.171.984a9.028,9.028,0,0,1-.2-2.684,6.614,6.614,0,0,1,.58,3.005l1.528,1.282a1.3,1.3,0,0,0,.024-.221c.25.109.306.584.613.58a1.1,1.1,0,0,1-.035.147l4.916,4.125V220.28c.882.57,1.055-.21,1.247-.958L132.99,215.2Zm-.915.58c-.328-.141-.206-1.158-.608-1.161C131.6,214.025,132.43,215.6,132.074,216.794Z" transform="translate(8.625 28.019)" fill="#fff"/>
  </g>
</svg>
